<svg xmlns="http://www.w3.org/2000/svg" width="21.597" height="17.857" viewBox="0 0 21.597 17.857">
  <g id="カメラアイコン8" transform="translate(0 -44.326)">
    <path id="Path_4485" data-name="Path 4485" d="M172.7,198.494a3.634,3.634,0,0,0-2.592,1.083,3.732,3.732,0,0,0,0,5.244,3.64,3.64,0,0,0,5.183,0,3.731,3.731,0,0,0,0-5.244A3.634,3.634,0,0,0,172.7,198.494Zm0,5.99a2.285,2.285,0,1,1,2.265-2.285A2.274,2.274,0,0,1,172.7,204.484Z" transform="translate(-161.905 -147.665)" fill="#fff"/>
    <path id="Path_4486" data-name="Path 4486" d="M20.955,48.176a2.19,2.19,0,0,0-1.556-.65H17.02a.5.5,0,0,1-.453-.3l-.713-1.6a2.2,2.2,0,0,0-2.006-1.3h-6.1a2.2,2.2,0,0,0-2.007,1.3l-.712,1.6a.5.5,0,0,1-.453.3H2.2A2.2,2.2,0,0,0,0,49.735V59.974a2.215,2.215,0,0,0,.641,1.56,2.191,2.191,0,0,0,1.557.65H19.4a2.186,2.186,0,0,0,1.556-.65,2.209,2.209,0,0,0,.642-1.56V49.735A2.208,2.208,0,0,0,20.955,48.176Zm-6.636,9.9a4.947,4.947,0,0,1-7.041,0,5.04,5.04,0,0,1,0-7.086,4.949,4.949,0,0,1,7.041,0,5.04,5.04,0,0,1,0,7.086Zm5.168-6.572h-1.51V50h1.51Z" transform="translate(0)" fill="#fff"/>
  </g>
</svg>
