<svg xmlns="http://www.w3.org/2000/svg" width="126" height="126" viewBox="0 0 126 126">
  <g id="Group_2055" data-name="Group 2055" transform="translate(-926 -798)">
    <g id="Group_2032" data-name="Group 2032" transform="translate(926 798)">
      <circle id="Ellipse_64" data-name="Ellipse 64" cx="63" cy="63" r="63" fill="#fff"/>
      <circle id="Ellipse_65" data-name="Ellipse 65" cx="52" cy="52" r="52" transform="translate(11 11)" fill="#ff6a4e"/>
    </g>
    <g id="カメラアイコン8" transform="translate(962.362 838.974)">
      <path id="Path_4485" data-name="Path 4485" d="M178.084,198.494a8.964,8.964,0,0,0-6.394,2.672,9.205,9.205,0,0,0,0,12.936,8.979,8.979,0,0,0,12.786,0,9.2,9.2,0,0,0,0-12.936A8.964,8.964,0,0,0,178.084,198.494Zm0,14.777a5.636,5.636,0,1,1,5.586-5.636A5.61,5.61,0,0,1,178.084,213.271Z" transform="translate(-151.446 -182.452)" fill="#fff"/>
      <path id="Path_4486" data-name="Path 4486" d="M51.691,53.823a5.4,5.4,0,0,0-3.838-1.6H41.984a1.223,1.223,0,0,1-1.117-.738l-1.758-3.936a5.421,5.421,0,0,0-4.948-3.218H19.115a5.427,5.427,0,0,0-4.95,3.218L12.408,51.48a1.224,1.224,0,0,1-1.117.738H5.422A5.437,5.437,0,0,0,0,57.67V82.927a5.463,5.463,0,0,0,1.581,3.847,5.406,5.406,0,0,0,3.842,1.6H47.853a5.392,5.392,0,0,0,3.838-1.6,5.448,5.448,0,0,0,1.584-3.847V57.67A5.447,5.447,0,0,0,51.691,53.823ZM35.322,78.248a12.2,12.2,0,0,1-17.369,0,12.433,12.433,0,0,1,0-17.48,12.209,12.209,0,0,1,17.369,0,12.433,12.433,0,0,1,0,17.48ZM48.069,62.038H44.345V58.312h3.724Z" transform="translate(0 -44.326)" fill="#fff"/>
    </g>
  </g>
</svg>
