<svg xmlns="http://www.w3.org/2000/svg" width="77.352" height="39.291" viewBox="0 0 77.352 39.291">
  <g id="Group_1822" data-name="Group 1822" transform="translate(0 0)">
    <path id="Path_4291" data-name="Path 4291" d="M85.245,107.433c-30.788,30.446-66.959,3.948-66.959,3.948s31.469-39.875,66.959-3.948" transform="translate(-16.459 -83.153)" fill="#fff"/>
    <path id="Path_4292" data-name="Path 4292" d="M84.235,106.447a49.878,49.878,0,0,1-23.5,13.412,48.657,48.657,0,0,1-21.515-.2,58.816,58.816,0,0,1-21.463-9.319l0,0,.08.616A55.475,55.475,0,0,1,33.256,97.955,41.749,41.749,0,0,1,50.49,92.237a36.826,36.826,0,0,1,21.252,4.958A57.774,57.774,0,0,1,84.235,107a.392.392,0,0,0,.554-.554C78.756,100.391,71.7,95.266,63.436,92.783a35.98,35.98,0,0,0-18.927-.33c-9.48,2.33-17.988,8.192-24.716,15.134a37.666,37.666,0,0,0-2.516,2.809.4.4,0,0,0,.08.616A59.841,59.841,0,0,0,37.9,120.149a51.25,51.25,0,0,0,19.915,1.061,47.337,47.337,0,0,0,22-9.8A58.715,58.715,0,0,0,84.79,107c.362-.354-.193-.908-.554-.554" transform="translate(-15.727 -82.444)" fill="#ecc6c4"/>
    <path id="Path_4293" data-name="Path 4293" d="M101.851,111.675A13.258,13.258,0,1,1,87.763,99.3a13.258,13.258,0,0,1,14.087,12.373" transform="translate(-53.861 -87.639)" fill="#6a5542"/>
    <path id="Path_4294" data-name="Path 4294" d="M100.725,110.951a13.041,13.041,0,0,1-11.987,13.7c-7.077.587-13.13-5.083-13.7-11.987-.586-7.077,5.083-13.13,11.988-13.7,7.077-.587,13.13,5.083,13.7,11.987.041.492.812.5.77,0A13.827,13.827,0,0,0,87.509,98.17c-7.341.079-13.091,6.371-13.272,13.528-.186,7.345,5.911,13.3,13.054,13.742,7.34.449,13.5-5.448,14.192-12.567a13.389,13.389,0,0,0,.013-1.921c-.023-.495-.794-.5-.77,0" transform="translate(-53.121 -86.915)" fill="#6a5542"/>
    <path id="Path_4295" data-name="Path 4295" d="M109.231,128.339a5.825,5.825,0,1,1-6.189-5.436,5.825,5.825,0,0,1,6.189,5.436" transform="translate(-68.429 -103.115)" fill="#493930"/>
    <path id="Path_4296" data-name="Path 4296" d="M108.114,127.614a5.434,5.434,0,1,1-5.8-5.044,5.53,5.53,0,0,1,5.8,5.044c.052.5.837.5.784,0a6.33,6.33,0,0,0-6.581-5.828c-3.475.085-5.908,3.292-5.828,6.581.084,3.476,3.292,5.908,6.581,5.828,3.475-.084,5.908-3.292,5.828-6.581a.392.392,0,0,0-.784,0" transform="translate(-67.704 -102.389)" fill="#493930"/>
    <path id="Path_4297" data-name="Path 4297" d="M129.334,116.637a2.875,2.875,0,1,1-3.055-2.683,2.875,2.875,0,0,1,3.055,2.683" transform="translate(-85.464 -97.254)" fill="#fff"/>
    <path id="Path_4298" data-name="Path 4298" d="M128.209,115.9a2.485,2.485,0,0,1-4.953.372c-.38-3.186,4.576-3.541,4.953-.372.059.5.844.5.784,0a3.337,3.337,0,0,0-3.446-3.075,3.266,3.266,0,1,0,3.446,3.075.392.392,0,0,0-.784,0" transform="translate(-84.73 -96.521)" fill="#fff"/>
    <path id="Path_4299" data-name="Path 4299" d="M28.644,99.743c9.88-9.731,22.307-17.9,36.636-17.9,11.14,0,21.4,5.379,29.62,12.556.379.331.936-.221.554-.554-8.449-7.375-18.772-12.66-30.175-12.786-14.473-.161-27.252,8.346-37.19,18.134-.361.355.194.909.554.554" transform="translate(-22.807 -75.698)" fill="#c5ac88"/>
    <path id="Path_4300" data-name="Path 4300" d="M14.075,96.206C35.356,69.379,58.83,74.267,58.83,74.267a33.329,33.329,0,0,0,12.558-7.632A30.911,30.911,0,0,1,63.607,75.2c3.464,2.411,11-2.613,14.053-4.611-1.474,3.325-4.517,5.265-7.822,6.928,2.638,2.317,9,.871,14.413.96-2.96,1.393-7.182,1.51-9.127,2.682,2.972,1.8,8.409,2.326,13.617,3.1-3.906.83-6.268.372-9.041.79a54.711,54.711,0,0,0,10.965,3.241,31.257,31.257,0,0,1-9.625-.7c.542,1.284,1.058,3.893,1.662,5.083-34.3-37.482-68.626,3.539-68.626,3.539" transform="translate(-13.7 -66.251)" fill="#8c7261"/>
    <path id="Path_4301" data-name="Path 4301" d="M13.639,95.753c8.709-10.888,20.434-19.7,34.5-21.779a34,34,0,0,1,9.078-.184,5.764,5.764,0,0,0,3.206-.685,34.06,34.06,0,0,0,10.528-6.923l-.616-.475A29.913,29.913,0,0,1,62.7,74.13a.4.4,0,0,0,0,.677c2.173,1.357,4.906.46,7.077-.436A45.235,45.235,0,0,0,77.145,70.2l-.536-.536c-1.564,3.293-4.536,5.185-7.682,6.787a.393.393,0,0,0-.079.616c1.548,1.23,3.51,1.4,5.423,1.438,3.091.063,6.174-.386,9.267-.363l-.2-.73C80.43,78.69,77,78.567,74.213,80.09a.4.4,0,0,0,0,.677c4.044,2.306,9.206,2.479,13.711,3.136v-.756c-3.005.6-6.025.382-9.041.79-.434.059-.307.631,0,.756a51.644,51.644,0,0,0,10.965,3.241q.052-.385.1-.77a31.4,31.4,0,0,1-9.521-.688c-.265-.067-.6.191-.482.482.659,1.7.941,3.519,1.7,5.177l.616-.475c-5.839-6.323-12.79-11.685-21.075-14.316a36.188,36.188,0,0,0-19.314-.5c-9.919,2.359-18.87,8.385-26.068,15.463-.941.926-1.875,1.875-2.724,2.887-.323.384.229.942.554.554A60.638,60.638,0,0,1,30.112,82.426a43.944,43.944,0,0,1,17.927-5.779,36.207,36.207,0,0,1,21.444,5.31A55.472,55.472,0,0,1,81.712,92.215c.322.349.791-.094.616-.475-.731-1.593-.989-3.359-1.623-4.99l-.482.482a32.092,32.092,0,0,0,9.73.716c.418-.024.562-.694.1-.77a51.656,51.656,0,0,1-10.965-3.241v.756c3.016-.407,6.036-.192,9.041-.79.366-.073.385-.7,0-.756-4.418-.645-9.559-.8-13.524-3.057v.677c2.772-1.512,6.226-1.4,9.127-2.682.374-.165.165-.728-.2-.731-2.4-.018-4.795.2-7.192.317-2.239.112-5.079.319-6.944-1.163q-.04.308-.079.616c3.262-1.662,6.344-3.66,7.963-7.068.155-.328-.18-.769-.536-.536A58.845,58.845,0,0,1,70.684,73.1c-2.143,1.061-5.318,2.449-7.591,1.028v.677a30.9,30.9,0,0,0,7.922-8.7c.242-.388-.3-.775-.616-.475a33.744,33.744,0,0,1-11.831,7.347,3.668,3.668,0,0,1-1.779-.019,36.459,36.459,0,0,0-9.732.4C33.253,75.588,21.636,84.508,13.085,95.2c-.313.391.239.949.554.554" transform="translate(-12.987 -65.521)" fill="#8c7261"/>
  </g>
</svg>
