<svg id="ポートレート写真のアイコン" xmlns="http://www.w3.org/2000/svg" width="17.63" height="20.895" viewBox="0 0 17.63 20.895">
  <path id="Path_4483" data-name="Path 4483" d="M140.225,105.245l-.106-1.371a1.623,1.623,0,0,0-.918-1.183l-2.068-.846a1.1,1.1,0,0,1-.488-1.019v-.32a1.348,1.348,0,0,1,.075-.446,4.3,4.3,0,0,0,1.37-2.891c0-2.106-1.347-3.46-3.009-3.46s-3.008,1.354-3.008,3.46a4.3,4.3,0,0,0,1.37,2.891,1.382,1.382,0,0,1,.074.446v.32a1.1,1.1,0,0,1-.488,1.019l-2.069.846a1.621,1.621,0,0,0-.917,1.183l-.107,1.371h10.289Z" transform="translate(-126.266 -89.885)" fill="#fff"/>
  <path id="Path_4484" data-name="Path 4484" d="M40,0V20.895H57.63V0ZM55.671,16.977H41.959V1.959H55.671Z" transform="translate(-40)" fill="#fff"/>
</svg>
