<svg id="Group_1814" data-name="Group 1814" xmlns="http://www.w3.org/2000/svg" xmlns:xlink="http://www.w3.org/1999/xlink" width="305.931" height="492.423" viewBox="0 0 305.931 492.423">
  <defs>
    <clipPath id="clip-path">
      <rect id="Rectangle_1338" data-name="Rectangle 1338" width="305.931" height="492.423" fill="none"/>
    </clipPath>
    <filter id="Path_4221" x="61.448" y="397.863" width="183.032" height="106.56" filterUnits="userSpaceOnUse">
      <feOffset dy="3" input="SourceAlpha"/>
      <feGaussianBlur stdDeviation="3" result="blur"/>
      <feFlood flood-opacity="0.161"/>
      <feComposite operator="in" in2="blur"/>
      <feComposite in="SourceGraphic"/>
    </filter>
    <filter id="Path_4223" x="-9" y="29.271" width="323.931" height="362.354" filterUnits="userSpaceOnUse">
      <feOffset dy="3" input="SourceAlpha"/>
      <feGaussianBlur stdDeviation="3" result="blur-2"/>
      <feFlood flood-opacity="0.161"/>
      <feComposite operator="in" in2="blur-2"/>
      <feComposite in="SourceGraphic"/>
    </filter>
    <filter id="Path_4224" x="7.958" y="116.043" width="288.059" height="337.164" filterUnits="userSpaceOnUse">
      <feOffset dy="3" input="SourceAlpha"/>
      <feGaussianBlur stdDeviation="3" result="blur-3"/>
      <feFlood flood-opacity="0.161"/>
      <feComposite operator="in" in2="blur-3"/>
      <feComposite in="SourceGraphic"/>
    </filter>
    <clipPath id="clip-path-5">
      <rect id="Rectangle_1334" data-name="Rectangle 1334" width="89.922" height="54.434" fill="none"/>
    </clipPath>
    <clipPath id="clip-path-6">
      <path id="Path_4249" data-name="Path 4249" d="M100.561,162.93c-2.938,14.126-25.3,21.42-49.959,16.295s-42.26-20.732-39.323-34.86,25.3-21.42,49.959-16.295,42.26,20.734,39.323,34.86" transform="translate(-10.96 -126.43)" fill="none"/>
    </clipPath>
    <radialGradient id="radial-gradient" cx="0.5" cy="0.5" r="0.432" gradientTransform="matrix(0, 1, 0.762, 0, -1.982, 2.481)" gradientUnits="objectBoundingBox">
      <stop offset="0" stop-color="#ffe3e9"/>
      <stop offset="1" stop-color="#fff"/>
    </radialGradient>
    <clipPath id="clip-path-8">
      <path id="Path_4250" data-name="Path 4250" d="M80.851,162.93c2.938,14.126,25.3,21.42,49.959,16.295s42.26-20.732,39.323-34.86-25.3-21.42-49.959-16.295S77.913,148.8,80.851,162.93" transform="translate(-80.531 -126.43)" fill="none"/>
    </clipPath>
    <radialGradient id="radial-gradient-2" cx="0.5" cy="0.5" r="0.574" gradientTransform="translate(-3.008 4.113) rotate(180) scale(0.752 0.573)" xlink:href="#radial-gradient"/>
    <clipPath id="clip-path-9">
      <rect id="Rectangle_1330" data-name="Rectangle 1330" width="81.829" height="61.877" fill="none"/>
    </clipPath>
  </defs>
  <g id="Group_1804" data-name="Group 1804">
    <g id="Group_1803" data-name="Group 1803" clip-path="url(#clip-path)">
      <g id="Group_1784" data-name="Group 1784">
        <g id="Group_1783" data-name="Group 1783" clip-path="url(#clip-path)">
          <g transform="matrix(1, 0, 0, 1, 0, 0)" filter="url(#Path_4221)">
            <path id="Path_4221-2" data-name="Path 4221" d="M181.8,171.856H43.194s23.813,36.566-13.216,88.56H195.01c-37.027-51.994-13.214-88.56-13.214-88.56" transform="translate(40.47 232.01)" fill="#f7e6ce"/>
          </g>
          <path id="Path_4222" data-name="Path 4222" d="M247.644,97.135c0,53.646-51.782,97.135-115.658,97.135S16.328,150.781,16.328,97.135,68.11,0,131.986,0,247.644,43.489,247.644,97.135" transform="translate(22.043)" fill="#4c2a0e"/>
          <g transform="matrix(1, 0, 0, 1, 0, 0)" filter="url(#Path_4223)">
            <path id="Path_4223-2" data-name="Path 4223" d="M305.931,184.609c0,96.512-60.858,174.754-152.967,174.754S0,281.122,0,184.609,48.8,17.756,152.964,15.073C252.858,12.5,305.931,88.1,305.931,184.609" transform="translate(0 20.26)" fill="#572f0f"/>
          </g>
          <g transform="matrix(1, 0, 0, 1, 0, 0)" filter="url(#Path_4224)">
            <path id="Path_4224-2" data-name="Path 4224" d="M146.254,51.987c-1.361-.1-6.843-.035-8.209,0C23.114,55.122,3.113,128.376,7.843,200.061,14.99,308.363,34.9,321.81,85.471,351.035c17.512,10.119,37.111,20.252,56.68,20.06,19.566.193,39.168-9.94,56.677-20.06,50.57-29.225,69.638-44.507,77.628-150.974,5.377-71.642-13.249-139.09-130.2-148.074" transform="translate(9.74 70.11)" fill="#f7e3c7"/>
          </g>
          <path id="Path_4225" data-name="Path 4225" d="M18.715,109.28s-10.9-19.616-15.877-3.556c-8.928,28.823,12.039,69.751,20.349,76.049.853-6.747-4.472-72.493-4.472-72.493" transform="translate(0.902 134.197)" fill="#f7e3c7"/>
          <path id="Path_4226" data-name="Path 4226" d="M124.028,109.28s10.9-19.616,15.877-3.556c8.928,28.823-12.039,69.751-20.349,76.049-.853-6.747,4.472-72.493,4.472-72.493" transform="translate(161.277 134.197)" fill="#f7e3c7"/>
        </g>
      </g>
      <g id="Group_1802" data-name="Group 1802">
        <g id="Group_1801" data-name="Group 1801" clip-path="url(#clip-path)">
          <path id="Path_4245" data-name="Path 4245" d="M78.749,142.868a70.09,70.09,0,0,1-23.773-3.734c9.029,6.975,13.743,13.947,23.773,13.947s18.426-10.831,23.773-13.947c-6.58,1.408-14.539,3.523-23.773,3.734" transform="translate(74.218 187.832)" fill="#c2a17f"/>
          <path id="Path_4246" data-name="Path 4246" d="M123.264,163.724c0,3.791-16.589,6.862-37.053,6.862s-37.053-3.071-37.053-6.862,16.589-6.862,37.053-6.862,37.053,3.071,37.053,6.862" transform="translate(66.365 211.765)" fill="#fff"/>
          <path id="Path_4247" data-name="Path 4247" d="M42.61,155.269c12.831,12.843,23.507,32.23,52.281,33.53,27.624,1.248,39.447-20.532,52.6-33.53-24.064,10.838-33.321,16.34-51.881,16.2-22.948-.169-25.676-10.145-53-16.2" transform="translate(57.524 209.614)" fill="#e6949b"/>
          <path id="Path_4248" data-name="Path 4248" d="M94.406,155.442c-4.453.078-8.629-1.394-15.823-1.29-14.539.209-16.415,7.318-35.974,2.632,6.326,4.425,24.7,11.51,42.848,8.848a54.631,54.631,0,0,1,17.623.451c18.081,3.269,34.021-.174,45.531-10.23-17.268,4.86-22.363,1.593-39.111-1.255-4.587-.78-12.251.893-15.094.844" transform="translate(57.524 208.099)" fill="#e6949b"/>
          <g id="Group_1795" data-name="Group 1795" transform="translate(25.754 297.113)" style="mix-blend-mode: multiply;isolation: isolate">
            <g id="Group_1794" data-name="Group 1794">
              <g id="Group_1793" data-name="Group 1793" clip-path="url(#clip-path-5)">
                <g id="Group_1792" data-name="Group 1792" transform="translate(0.001 0)">
                  <g id="Group_1791" data-name="Group 1791" clip-path="url(#clip-path-6)">
                    <rect id="Rectangle_1333" data-name="Rectangle 1333" width="79.487" height="105.662" transform="matrix(0.204, -0.979, 0.979, 0.204, -14.853, 55.376)" fill="url(#radial-gradient)"/>
                  </g>
                </g>
              </g>
            </g>
          </g>
          <g id="Group_1800" data-name="Group 1800" transform="translate(189.247 297.113)" style="mix-blend-mode: multiply;isolation: isolate">
            <g id="Group_1799" data-name="Group 1799">
              <g id="Group_1798" data-name="Group 1798" clip-path="url(#clip-path-5)">
                <g id="Group_1797" data-name="Group 1797" transform="translate(0.001 0)">
                  <g id="Group_1796" data-name="Group 1796" clip-path="url(#clip-path-8)">
                    <rect id="Rectangle_1335" data-name="Rectangle 1335" width="105.662" height="79.487" transform="translate(-14.853 -0.943) rotate(-11.743)" fill="url(#radial-gradient-2)"/>
                  </g>
                </g>
              </g>
            </g>
          </g>
          <path id="Path_4251" data-name="Path 4251" d="M21.532,134.76c.9-13.508,27.408-26.966,37.96-32.2C70.449,97.125,80.81,91.024,92.2,86.432c6.817-2.75,24.012-6.129,24.132-15.787-10.582-4.35-23.089.289-33.962-1.323,3.165-4.416,10.693-7.071,16.039-9.008C86.3,41.946,62.154,68.429,49.132,69.364,42.555,50.211,90.953,41.439,97.6,28.493c-3.746-3.863-10.817-4.392-16.138-2.867C72.71,22.787,54.124,40.144,46.6,45.462,35.2,53.523,18.582,67.89,18.961,83.636c6.1,1.034,18-9.073,12.206,3.516-2.63,5.72-11.665,10.4-15.9,15.409-5.316,6.289-10.4,15.848-8.986,24.419,1.1,6.674,8.961,16.57,15.249,7.781" transform="translate(8.158 33.524)" fill="#663712"/>
          <path id="Path_4252" data-name="Path 4252" d="M81.892,70.083c16.354-1.6,35.309,14.445,49.233,21.691,16.732,8.707,26.111,26.461,41.041,35.628-3.61-20.02-15.092-30.606-25.855-45.531,7.106-1.323,17.493,4.825,23.192,8.817-1.3-17.733-10.789-21.909-20.492-34.782,7.5-1.4,13.835,6.068,20.429,7.908,2-15.583-40.117-31.49-51.594-33.892.385,9.614,16.558,10.335,18.513,19.451a150.47,150.47,0,0,1-21.136-.86c6.094,4.966,17.743,13.287,18.52,21.566-12.495-5.13-35.675-11.562-49.226-9.856-9.985,1.257-10.074,5.109-2.625,9.861" transform="translate(103.446 40.394)" fill="#663712"/>
        </g>
      </g>
    </g>
  </g>
  <g id="Group_1805" data-name="Group 1805" transform="translate(51 215.273)">
    <g id="Group_1781" data-name="Group 1781" transform="translate(121.856)">
      <g id="Group_1780" data-name="Group 1780" transform="translate(0)" clip-path="url(#clip-path-9)">
        <path id="Path_4208" data-name="Path 4208" d="M85.245,107.433c-30.788,30.446-66.959,3.948-66.959,3.948s31.469-39.875,66.959-3.948" transform="translate(-11.983 -60.567)" fill="#fff"/>
        <path id="Path_4209" data-name="Path 4209" d="M84.235,106.447a49.878,49.878,0,0,1-23.5,13.412,48.657,48.657,0,0,1-21.515-.2,58.816,58.816,0,0,1-21.463-9.319l0,0,.08.616A55.475,55.475,0,0,1,33.256,97.955,41.749,41.749,0,0,1,50.49,92.237a36.826,36.826,0,0,1,21.252,4.958A57.774,57.774,0,0,1,84.235,107a.392.392,0,0,0,.554-.554C78.756,100.391,71.7,95.266,63.436,92.783a35.98,35.98,0,0,0-18.927-.33c-9.48,2.33-17.988,8.192-24.716,15.134a37.666,37.666,0,0,0-2.516,2.809.4.4,0,0,0,.08.616A59.841,59.841,0,0,0,37.9,120.149a51.25,51.25,0,0,0,19.915,1.061,47.337,47.337,0,0,0,22-9.8A58.715,58.715,0,0,0,84.79,107c.362-.354-.193-.908-.554-.554" transform="translate(-11.25 -59.859)" fill="#ecc6c4"/>
        <path id="Path_4210" data-name="Path 4210" d="M2.67,12.237C5.46,9.028,38.847,2.678,49.191,1.562A54.82,54.82,0,0,1,70.368,2.95c4.413,1.2,8.318,2.736,11.45,5.358q.173.1.016-.013c-9.457-2.415-20.555-.679-30.285.8C38,11.152,24.161,13.892,11.393,18.176c-3.105,1.042-6.084,2.271-9.084,3.48-2.811-1.68.361-9.419.361-9.419" transform="translate(-0.752 -0.741)" fill="#927960"/>
        <path id="Path_4211" data-name="Path 4211" d="M2.2,11.773c.97-1.046,2.787-1.48,4.083-1.918C8.8,9,11.387,8.334,13.968,7.691,20.533,6.056,27.177,4.724,33.831,3.5A164.058,164.058,0,0,1,51.638.93,54.537,54.537,0,0,1,67.11,1.993c4.846,1.05,9.787,2.684,13.679,5.85a.636.636,0,0,0,.17.11c.377.2.828-.32.475-.616-.923-.773-3.146-.779-4.308-.946a47.532,47.532,0,0,0-5.528-.42,85.909,85.909,0,0,0-12.987.859C50.2,7.9,41.8,9.31,33.494,11.008A177.025,177.025,0,0,0,8.077,17.926c-2.026.741-4.024,1.561-6.024,2.369C.484,20.928.805,17.283.9,16.556A20.975,20.975,0,0,1,2.3,11.6c.19-.469-.569-.67-.756-.209A23.067,23.067,0,0,0,.149,16.348c-.206,1.269-.474,4.456,1.3,4.945.5.137,1.544-.539,2.008-.726q1.5-.605,3.006-1.194c2.2-.86,4.435-1.626,6.686-2.345,4.477-1.431,9.023-2.641,13.595-3.729,8.947-2.129,18.021-3.654,27.113-5.015,4.455-.666,8.923-1.242,13.424-1.465a61.128,61.128,0,0,1,6.748.044c1.164.071,2.323.205,3.476.371.786.113,2.763.149,3.372.659l.475-.616c-.786-.426-1.486-1.122-2.241-1.613a23.943,23.943,0,0,0-2.846-1.536,40.359,40.359,0,0,0-6.549-2.3A53.094,53.094,0,0,0,55.338,0C49.089.03,42.858,1.128,36.718,2.2c-6.7,1.165-13.375,2.49-20,4.029-4.607,1.07-9.634,2.019-13.891,4.169a4.143,4.143,0,0,0-1.187.826c-.343.37.21.926.554.554" transform="translate(0 0)" fill="#927960"/>
        <path id="Path_4212" data-name="Path 4212" d="M101.851,111.675A13.258,13.258,0,1,1,87.763,99.3a13.258,13.258,0,0,1,14.087,12.373" transform="translate(-49.384 -65.053)" fill="#6a5542"/>
        <path id="Path_4213" data-name="Path 4213" d="M100.725,110.951a13.041,13.041,0,0,1-11.987,13.7c-7.077.587-13.13-5.083-13.7-11.987-.586-7.077,5.083-13.13,11.988-13.7,7.077-.587,13.13,5.083,13.7,11.987.041.492.812.5.77,0A13.827,13.827,0,0,0,87.509,98.17c-7.341.079-13.091,6.371-13.272,13.528-.186,7.345,5.911,13.3,13.054,13.742,7.34.449,13.5-5.448,14.192-12.567a13.389,13.389,0,0,0,.013-1.921c-.023-.495-.794-.5-.77,0" transform="translate(-48.644 -64.329)" fill="#6a5542"/>
        <path id="Path_4214" data-name="Path 4214" d="M109.231,128.339a5.825,5.825,0,1,1-6.189-5.436,5.825,5.825,0,0,1,6.189,5.436" transform="translate(-63.952 -80.529)" fill="#493930"/>
        <path id="Path_4215" data-name="Path 4215" d="M108.114,127.614a5.434,5.434,0,1,1-5.8-5.044,5.53,5.53,0,0,1,5.8,5.044c.052.5.837.5.784,0a6.33,6.33,0,0,0-6.581-5.828c-3.475.085-5.908,3.292-5.828,6.581.084,3.476,3.292,5.908,6.581,5.828,3.475-.084,5.908-3.292,5.828-6.581a.392.392,0,0,0-.784,0" transform="translate(-63.227 -79.803)" fill="#493930"/>
        <path id="Path_4216" data-name="Path 4216" d="M129.334,116.637a2.875,2.875,0,1,1-3.055-2.683,2.875,2.875,0,0,1,3.055,2.683" transform="translate(-80.987 -74.668)" fill="#fff"/>
        <path id="Path_4217" data-name="Path 4217" d="M128.209,115.9a2.485,2.485,0,0,1-4.953.372c-.38-3.186,4.576-3.541,4.953-.372.059.5.844.5.784,0a3.337,3.337,0,0,0-3.446-3.075,3.266,3.266,0,1,0,3.446,3.075.392.392,0,0,0-.784,0" transform="translate(-80.254 -73.935)" fill="#fff"/>
        <path id="Path_4218" data-name="Path 4218" d="M28.644,99.743c9.88-9.731,22.307-17.9,36.636-17.9,11.14,0,21.4,5.379,29.62,12.556.379.331.936-.221.554-.554-8.449-7.375-18.772-12.66-30.175-12.786-14.473-.161-27.252,8.346-37.19,18.134-.361.355.194.909.554.554" transform="translate(-18.33 -53.112)" fill="#c5ac88"/>
        <path id="Path_4219" data-name="Path 4219" d="M14.075,96.206C35.356,69.379,58.83,74.267,58.83,74.267a33.329,33.329,0,0,0,12.558-7.632A30.911,30.911,0,0,1,63.607,75.2c3.464,2.411,11-2.613,14.053-4.611-1.474,3.325-4.517,5.265-7.822,6.928,2.638,2.317,9,.871,14.413.96-2.96,1.393-7.182,1.51-9.127,2.682,2.972,1.8,8.409,2.326,13.617,3.1-3.906.83-6.268.372-9.041.79a54.711,54.711,0,0,0,10.965,3.241,31.257,31.257,0,0,1-9.625-.7c.542,1.284,1.058,3.893,1.662,5.083-34.3-37.482-68.626,3.539-68.626,3.539" transform="translate(-9.223 -43.665)" fill="#8c7261"/>
        <path id="Path_4220" data-name="Path 4220" d="M13.639,95.753c8.709-10.888,20.434-19.7,34.5-21.779a34,34,0,0,1,9.078-.184,5.764,5.764,0,0,0,3.206-.685,34.06,34.06,0,0,0,10.528-6.923l-.616-.475A29.913,29.913,0,0,1,62.7,74.13a.4.4,0,0,0,0,.677c2.173,1.357,4.906.46,7.077-.436A45.235,45.235,0,0,0,77.145,70.2l-.536-.536c-1.564,3.293-4.536,5.185-7.682,6.787a.393.393,0,0,0-.079.616c1.548,1.23,3.51,1.4,5.423,1.438,3.091.063,6.174-.386,9.267-.363l-.2-.73C80.43,78.69,77,78.567,74.213,80.09a.4.4,0,0,0,0,.677c4.044,2.306,9.206,2.479,13.711,3.136v-.756c-3.005.6-6.025.382-9.041.79-.434.059-.307.631,0,.756a51.644,51.644,0,0,0,10.965,3.241q.052-.385.1-.77a31.4,31.4,0,0,1-9.521-.688c-.265-.067-.6.191-.482.482.659,1.7.941,3.519,1.7,5.177l.616-.475c-5.839-6.323-12.79-11.685-21.075-14.316a36.188,36.188,0,0,0-19.314-.5c-9.919,2.359-18.87,8.385-26.068,15.463-.941.926-1.875,1.875-2.724,2.887-.323.384.229.942.554.554A60.638,60.638,0,0,1,30.112,82.426a43.944,43.944,0,0,1,17.927-5.779,36.207,36.207,0,0,1,21.444,5.31A55.472,55.472,0,0,1,81.712,92.215c.322.349.791-.094.616-.475-.731-1.593-.989-3.359-1.623-4.99l-.482.482a32.092,32.092,0,0,0,9.73.716c.418-.024.562-.694.1-.77a51.656,51.656,0,0,1-10.965-3.241v.756c3.016-.407,6.036-.192,9.041-.79.366-.073.385-.7,0-.756-4.418-.645-9.559-.8-13.524-3.057v.677c2.772-1.512,6.226-1.4,9.127-2.682.374-.165.165-.728-.2-.731-2.4-.018-4.795.2-7.192.317-2.239.112-5.079.319-6.944-1.163q-.04.308-.079.616c3.262-1.662,6.344-3.66,7.963-7.068.155-.328-.18-.769-.536-.536A58.845,58.845,0,0,1,70.684,73.1c-2.143,1.061-5.318,2.449-7.591,1.028v.677a30.9,30.9,0,0,0,7.922-8.7c.242-.388-.3-.775-.616-.475a33.744,33.744,0,0,1-11.831,7.347,3.668,3.668,0,0,1-1.779-.019,36.459,36.459,0,0,0-9.732.4C33.253,75.588,21.636,84.508,13.085,95.2c-.313.391.239.949.554.554" transform="translate(-8.51 -42.935)" fill="#8c7261"/>
      </g>
    </g>
    <g id="Group_1782" data-name="Group 1782">
      <g id="Group_1780-2" data-name="Group 1780" clip-path="url(#clip-path-9)">
        <path id="Path_4208-2" data-name="Path 4208" d="M18.286,107.433c30.788,30.446,66.959,3.948,66.959,3.948s-31.469-39.875-66.959-3.948" transform="translate(-9.719 -60.567)" fill="#fff"/>
        <path id="Path_4209-2" data-name="Path 4209" d="M17.841,106.447a49.878,49.878,0,0,0,23.5,13.412,48.657,48.657,0,0,0,21.515-.2,58.816,58.816,0,0,0,21.463-9.319l0,0-.08.616A55.475,55.475,0,0,0,68.82,97.955a41.749,41.749,0,0,0-17.234-5.719,36.826,36.826,0,0,0-21.252,4.958A57.775,57.775,0,0,0,17.841,107a.392.392,0,0,1-.554-.554c6.034-6.056,13.091-11.182,21.354-13.665a35.98,35.98,0,0,1,18.927-.33c9.48,2.33,17.988,8.192,24.716,15.134A37.669,37.669,0,0,1,84.8,110.4a.4.4,0,0,1-.08.616,59.841,59.841,0,0,1-20.543,9.137,51.25,51.25,0,0,1-19.915,1.061,47.337,47.337,0,0,1-22-9.8,58.714,58.714,0,0,1-4.971-4.4c-.362-.354.193-.908.554-.554" transform="translate(-8.997 -59.859)" fill="#ecc6c4"/>
        <path id="Path_4210-2" data-name="Path 4210" d="M80.386,12.237C77.6,9.028,44.209,2.678,33.865,1.562A54.82,54.82,0,0,0,12.688,2.95C8.276,4.145,4.37,5.686,1.238,8.307q-.173.1-.016-.013c9.457-2.415,20.555-.679,30.285.8,13.546,2.059,27.389,4.8,40.156,9.082,3.105,1.042,6.084,2.271,9.084,3.48,2.811-1.68-.361-9.419-.361-9.419" transform="translate(-0.476 -0.741)" fill="#927960"/>
        <path id="Path_4211-2" data-name="Path 4211" d="M79.367,11.773c-.97-1.046-2.787-1.48-4.083-1.918C72.761,9,70.176,8.334,67.594,7.691,61.029,6.056,54.385,4.724,47.732,3.5A164.058,164.058,0,0,0,29.925.93,54.537,54.537,0,0,0,14.452,1.993C9.606,3.044,4.665,4.677.773,7.843a.636.636,0,0,1-.17.11c-.377.2-.828-.32-.475-.616.923-.773,3.146-.779,4.308-.946a47.532,47.532,0,0,1,5.528-.42,85.909,85.909,0,0,1,12.987.859C31.365,7.9,39.76,9.31,48.068,11.008a177.025,177.025,0,0,1,25.417,6.918c2.026.741,4.024,1.561,6.024,2.369,1.569.634,1.248-3.011,1.148-3.739A20.975,20.975,0,0,0,79.266,11.6c-.19-.469.569-.67.756-.209a23.067,23.067,0,0,1,1.392,4.956c.206,1.269.474,4.456-1.3,4.945-.5.137-1.544-.539-2.008-.726q-1.5-.605-3.006-1.194c-2.2-.86-4.435-1.626-6.686-2.345C63.934,15.6,59.388,14.386,54.816,13.3,45.868,11.169,36.795,9.644,27.7,8.283c-4.455-.666-8.923-1.242-13.424-1.465a61.128,61.128,0,0,0-6.748.044c-1.164.071-2.323.205-3.476.371-.786.113-2.763.149-3.372.659L.207,7.277c.786-.426,1.486-1.122,2.241-1.613A23.942,23.942,0,0,1,5.293,4.128a40.359,40.359,0,0,1,6.549-2.3A53.094,53.094,0,0,1,26.224,0C32.473.03,38.7,1.128,44.844,2.2c6.7,1.165,13.375,2.49,20,4.029,4.607,1.07,9.634,2.019,13.891,4.169a4.143,4.143,0,0,1,1.187.826c.343.37-.21.926-.554.554" transform="translate(0.266 0)" fill="#927960"/>
        <path id="Path_4212-2" data-name="Path 4212" d="M75.39,111.675A13.258,13.258,0,1,0,89.478,99.3,13.258,13.258,0,0,0,75.39,111.675" transform="translate(-46.029 -65.053)" fill="#6a5542"/>
        <path id="Path_4213-2" data-name="Path 4213" d="M75.031,110.951a13.041,13.041,0,0,0,11.987,13.7c7.077.587,13.13-5.083,13.7-11.987.586-7.077-5.083-13.13-11.988-13.7-7.077-.587-13.13,5.083-13.7,11.987-.041.492-.812.5-.77,0A13.827,13.827,0,0,1,88.248,98.17c7.341.079,13.091,6.371,13.272,13.528.186,7.345-5.911,13.3-13.054,13.742-7.34.449-13.5-5.448-14.192-12.567a13.389,13.389,0,0,1-.013-1.921c.023-.495.794-.5.77,0" transform="translate(-45.285 -64.329)" fill="#6a5542"/>
        <path id="Path_4214-2" data-name="Path 4214" d="M97.606,128.339A5.825,5.825,0,1,0,103.8,122.9a5.825,5.825,0,0,0-6.189,5.436" transform="translate(-61.057 -80.529)" fill="#493930"/>
        <path id="Path_4215-2" data-name="Path 4215" d="M97.274,127.614a5.434,5.434,0,1,0,5.8-5.044,5.53,5.53,0,0,0-5.8,5.044c-.052.5-.837.5-.784,0a6.33,6.33,0,0,1,6.581-5.828c3.475.085,5.908,3.292,5.828,6.581-.084,3.476-3.292,5.908-6.581,5.828-3.475-.084-5.908-3.292-5.828-6.581a.392.392,0,0,1,.784,0" transform="translate(-60.333 -79.803)" fill="#493930"/>
        <path id="Path_4216-2" data-name="Path 4216" d="M123.6,116.637a2.875,2.875,0,1,0,3.055-2.683,2.875,2.875,0,0,0-3.055,2.683" transform="translate(-90.115 -74.668)" fill="#fff"/>
        <path id="Path_4217-2" data-name="Path 4217" d="M123.259,115.9a2.485,2.485,0,0,0,4.953.372c.38-3.186-4.576-3.541-4.953-.372-.059.5-.844.5-.784,0a3.337,3.337,0,0,1,3.446-3.075,3.266,3.266,0,1,1-3.446,3.075.392.392,0,0,1,.784,0" transform="translate(-89.385 -73.935)" fill="#fff"/>
        <path id="Path_4218-2" data-name="Path 4218" d="M94.911,99.743c-9.88-9.731-22.307-17.9-36.636-17.9-11.14,0-21.4,5.379-29.62,12.556-.379.331-.936-.221-.554-.554,8.449-7.375,18.772-12.66,30.175-12.786,14.473-.161,27.252,8.346,37.19,18.134.361.355-.194.909-.554.554" transform="translate(-23.396 -53.112)" fill="#c5ac88"/>
        <path id="Path_4219-2" data-name="Path 4219" d="M90.665,96.206C69.383,69.379,45.909,74.267,45.909,74.267a33.329,33.329,0,0,1-12.558-7.632A30.911,30.911,0,0,0,41.132,75.2c-3.464,2.411-11-2.613-14.053-4.611,1.474,3.325,4.517,5.265,7.822,6.928-2.638,2.317-9,.871-14.413.96,2.96,1.393,7.182,1.51,9.127,2.682-2.972,1.8-8.409,2.326-13.617,3.1,3.906.83,6.268.372,9.041.79a54.711,54.711,0,0,1-10.965,3.241,31.257,31.257,0,0,0,9.625-.7c-.542,1.284-1.058,3.893-1.662,5.083,34.3-37.482,68.626,3.538,68.626,3.538" transform="translate(-13.688 -43.665)" fill="#8c7261"/>
        <path id="Path_4220-2" data-name="Path 4220" d="M89.687,95.753c-8.709-10.888-20.434-19.7-34.5-21.779a34,34,0,0,0-9.078-.184A5.764,5.764,0,0,1,42.9,73.1a34.06,34.06,0,0,1-10.528-6.923l.616-.475a29.913,29.913,0,0,0,7.641,8.424.4.4,0,0,1,0,.677c-2.173,1.357-4.906.46-7.077-.436A45.235,45.235,0,0,1,26.181,70.2l.536-.536c1.564,3.293,4.536,5.185,7.682,6.787a.393.393,0,0,1,.079.616c-1.548,1.23-3.51,1.4-5.423,1.438-3.091.063-6.174-.386-9.267-.363l.2-.73c2.91,1.282,6.336,1.159,9.127,2.682a.4.4,0,0,1,0,.677C25.07,83.073,19.907,83.246,15.4,83.9v-.756c3.005.6,6.025.382,9.041.79.434.059.307.631,0,.756a51.644,51.644,0,0,1-10.965,3.241q-.052-.385-.1-.77a31.4,31.4,0,0,0,9.521-.688c.265-.067.6.191.482.482-.659,1.7-.941,3.519-1.7,5.177l-.616-.475C26.9,85.337,33.85,79.975,42.135,77.345a36.188,36.188,0,0,1,19.314-.5c9.919,2.359,18.87,8.385,26.068,15.463.941.926,1.875,1.875,2.724,2.887.323.384-.229.942-.554.554A60.638,60.638,0,0,0,73.214,82.426a43.944,43.944,0,0,0-17.927-5.779,36.207,36.207,0,0,0-21.444,5.31A55.471,55.471,0,0,0,21.615,92.215c-.322.349-.791-.094-.616-.475.731-1.593.989-3.359,1.623-4.99l.482.482a32.092,32.092,0,0,1-9.73.716c-.418-.024-.562-.694-.1-.77a51.656,51.656,0,0,0,10.965-3.241v.756c-3.016-.407-6.036-.192-9.041-.79-.366-.073-.385-.7,0-.756,4.418-.645,9.559-.8,13.524-3.057v.677c-2.772-1.512-6.226-1.4-9.127-2.682-.374-.165-.165-.728.2-.731,2.4-.018,4.795.2,7.192.317,2.239.112,5.079.319,6.944-1.163l.079.616c-3.262-1.662-6.344-3.66-7.963-7.068-.155-.328.18-.769.536-.536A58.846,58.846,0,0,0,32.643,73.1c2.143,1.061,5.318,2.449,7.591,1.028v.677a30.9,30.9,0,0,1-7.922-8.7c-.242-.388.3-.775.616-.475a33.744,33.744,0,0,0,11.831,7.347,3.668,3.668,0,0,0,1.779-.019,36.459,36.459,0,0,1,9.732.4c13.8,2.234,25.421,11.154,33.972,21.845.313.391-.239.949-.554.554" transform="translate(-12.987 -42.935)" fill="#8c7261"/>
      </g>
    </g>
  </g>
</svg>
