<svg xmlns="http://www.w3.org/2000/svg" xmlns:xlink="http://www.w3.org/1999/xlink" width="305.931" height="492.423" viewBox="0 0 305.931 492.423">
  <defs>
    <clipPath id="clip-path">
      <rect id="Rectangle_1338" data-name="Rectangle 1338" width="305.931" height="492.423" fill="none"/>
    </clipPath>
    <filter id="Path_4221" x="61.448" y="397.863" width="183.032" height="106.56" filterUnits="userSpaceOnUse">
      <feOffset dy="3" input="SourceAlpha"/>
      <feGaussianBlur stdDeviation="3" result="blur"/>
      <feFlood flood-opacity="0.161"/>
      <feComposite operator="in" in2="blur"/>
      <feComposite in="SourceGraphic"/>
    </filter>
    <filter id="Path_4223" x="-9" y="29.271" width="323.931" height="362.354" filterUnits="userSpaceOnUse">
      <feOffset dy="3" input="SourceAlpha"/>
      <feGaussianBlur stdDeviation="3" result="blur-2"/>
      <feFlood flood-opacity="0.161"/>
      <feComposite operator="in" in2="blur-2"/>
      <feComposite in="SourceGraphic"/>
    </filter>
    <filter id="Path_4224" x="7.958" y="116.043" width="288.059" height="337.164" filterUnits="userSpaceOnUse">
      <feOffset dy="3" input="SourceAlpha"/>
      <feGaussianBlur stdDeviation="3" result="blur-3"/>
      <feFlood flood-opacity="0.161"/>
      <feComposite operator="in" in2="blur-3"/>
      <feComposite in="SourceGraphic"/>
    </filter>
    <clipPath id="clip-path-5">
      <rect id="Rectangle_1334" data-name="Rectangle 1334" width="89.922" height="54.434" fill="none"/>
    </clipPath>
    <clipPath id="clip-path-6">
      <path id="Path_4249" data-name="Path 4249" d="M100.561,162.93c-2.938,14.126-25.3,21.42-49.959,16.295s-42.26-20.732-39.323-34.86,25.3-21.42,49.959-16.295,42.26,20.734,39.323,34.86" transform="translate(-10.96 -126.43)" fill="none"/>
    </clipPath>
    <radialGradient id="radial-gradient" cx="0.5" cy="0.5" r="0.432" gradientTransform="matrix(0, 1, 0.762, 0, -1.982, 2.481)" gradientUnits="objectBoundingBox">
      <stop offset="0" stop-color="#ffe3e9"/>
      <stop offset="1" stop-color="#fff"/>
    </radialGradient>
    <clipPath id="clip-path-8">
      <path id="Path_4250" data-name="Path 4250" d="M80.851,162.93c2.938,14.126,25.3,21.42,49.959,16.295s42.26-20.732,39.323-34.86-25.3-21.42-49.959-16.295S77.913,148.8,80.851,162.93" transform="translate(-80.531 -126.43)" fill="none"/>
    </clipPath>
    <radialGradient id="radial-gradient-2" cx="0.5" cy="0.5" r="0.574" gradientTransform="translate(-3.008 4.113) rotate(180) scale(0.752 0.573)" xlink:href="#radial-gradient"/>
    <clipPath id="clip-path-9">
      <rect id="Rectangle_1342" data-name="Rectangle 1342" width="90.849" height="68.698" fill="none"/>
    </clipPath>
  </defs>
  <g id="Group_1817" data-name="Group 1817" transform="translate(-479.914 -1891.539)">
    <g id="Group_1814" data-name="Group 1814" transform="translate(181.914 1202)">
      <g id="Group_1804" data-name="Group 1804" transform="translate(298 689.539)">
        <g id="Group_1803" data-name="Group 1803" clip-path="url(#clip-path)">
          <g id="Group_1784" data-name="Group 1784">
            <g id="Group_1783" data-name="Group 1783" clip-path="url(#clip-path)">
              <g transform="matrix(1, 0, 0, 1, 0, 0)" filter="url(#Path_4221)">
                <path id="Path_4221-2" data-name="Path 4221" d="M181.8,171.856H43.194s23.813,36.566-13.216,88.56H195.01c-37.027-51.994-13.214-88.56-13.214-88.56" transform="translate(40.47 232.01)" fill="#f7e6ce"/>
              </g>
              <path id="Path_4222" data-name="Path 4222" d="M247.644,97.135c0,53.646-51.782,97.135-115.658,97.135S16.328,150.781,16.328,97.135,68.11,0,131.986,0,247.644,43.489,247.644,97.135" transform="translate(22.043)" fill="#4c2a0e"/>
              <g transform="matrix(1, 0, 0, 1, 0, 0)" filter="url(#Path_4223)">
                <path id="Path_4223-2" data-name="Path 4223" d="M305.931,184.609c0,96.512-60.858,174.754-152.967,174.754S0,281.122,0,184.609,48.8,17.756,152.964,15.073C252.858,12.5,305.931,88.1,305.931,184.609" transform="translate(0 20.26)" fill="#572f0f"/>
              </g>
              <g transform="matrix(1, 0, 0, 1, 0, 0)" filter="url(#Path_4224)">
                <path id="Path_4224-2" data-name="Path 4224" d="M146.254,51.987c-1.361-.1-6.843-.035-8.209,0C23.114,55.122,3.113,128.376,7.843,200.061,14.99,308.363,34.9,321.81,85.471,351.035c17.512,10.119,37.111,20.252,56.68,20.06,19.566.193,39.168-9.94,56.677-20.06,50.57-29.225,69.638-44.507,77.628-150.974,5.377-71.642-13.249-139.09-130.2-148.074" transform="translate(9.74 70.11)" fill="#f7e3c7"/>
              </g>
              <path id="Path_4225" data-name="Path 4225" d="M18.715,109.28s-10.9-19.616-15.877-3.556c-8.928,28.823,12.039,69.751,20.349,76.049.853-6.747-4.472-72.493-4.472-72.493" transform="translate(0.902 134.197)" fill="#f7e3c7"/>
              <path id="Path_4226" data-name="Path 4226" d="M124.028,109.28s10.9-19.616,15.877-3.556c8.928,28.823-12.039,69.751-20.349,76.049-.853-6.747,4.472-72.493,4.472-72.493" transform="translate(161.277 134.197)" fill="#f7e3c7"/>
            </g>
          </g>
          <g id="Group_1802" data-name="Group 1802">
            <g id="Group_1801" data-name="Group 1801" clip-path="url(#clip-path)">
              <path id="Path_4245" data-name="Path 4245" d="M78.749,142.868a70.09,70.09,0,0,1-23.773-3.734c9.029,6.975,13.743,13.947,23.773,13.947s18.426-10.831,23.773-13.947c-6.58,1.408-14.539,3.523-23.773,3.734" transform="translate(74.218 187.832)" fill="#c2a17f"/>
              <path id="Path_4246" data-name="Path 4246" d="M123.264,163.724c0,3.791-16.589,6.862-37.053,6.862s-37.053-3.071-37.053-6.862,16.589-6.862,37.053-6.862,37.053,3.071,37.053,6.862" transform="translate(66.365 211.765)" fill="#fff"/>
              <path id="Path_4247" data-name="Path 4247" d="M42.61,155.269c12.831,12.843,23.507,32.23,52.281,33.53,27.624,1.248,39.447-20.532,52.6-33.53-24.064,10.838-33.321,16.34-51.881,16.2-22.948-.169-25.676-10.145-53-16.2" transform="translate(57.524 209.614)" fill="#e6949b"/>
              <path id="Path_4248" data-name="Path 4248" d="M94.406,155.442c-4.453.078-8.629-1.394-15.823-1.29-14.539.209-16.415,7.318-35.974,2.632,6.326,4.425,24.7,11.51,42.848,8.848a54.631,54.631,0,0,1,17.623.451c18.081,3.269,34.021-.174,45.531-10.23-17.268,4.86-22.363,1.593-39.111-1.255-4.587-.78-12.251.893-15.094.844" transform="translate(57.524 208.099)" fill="#e6949b"/>
              <g id="Group_1795" data-name="Group 1795" transform="translate(25.754 297.113)" style="mix-blend-mode: multiply;isolation: isolate">
                <g id="Group_1794" data-name="Group 1794">
                  <g id="Group_1793" data-name="Group 1793" clip-path="url(#clip-path-5)">
                    <g id="Group_1792" data-name="Group 1792" transform="translate(0.001 0)">
                      <g id="Group_1791" data-name="Group 1791" clip-path="url(#clip-path-6)">
                        <rect id="Rectangle_1333" data-name="Rectangle 1333" width="79.487" height="105.662" transform="matrix(0.204, -0.979, 0.979, 0.204, -14.853, 55.376)" fill="url(#radial-gradient)"/>
                      </g>
                    </g>
                  </g>
                </g>
              </g>
              <g id="Group_1800" data-name="Group 1800" transform="translate(189.247 297.113)" style="mix-blend-mode: multiply;isolation: isolate">
                <g id="Group_1799" data-name="Group 1799">
                  <g id="Group_1798" data-name="Group 1798" clip-path="url(#clip-path-5)">
                    <g id="Group_1797" data-name="Group 1797" transform="translate(0.001 0)">
                      <g id="Group_1796" data-name="Group 1796" clip-path="url(#clip-path-8)">
                        <rect id="Rectangle_1335" data-name="Rectangle 1335" width="105.662" height="79.487" transform="translate(-14.853 -0.943) rotate(-11.743)" fill="url(#radial-gradient-2)"/>
                      </g>
                    </g>
                  </g>
                </g>
              </g>
              <path id="Path_4251" data-name="Path 4251" d="M21.532,134.76c.9-13.508,27.408-26.966,37.96-32.2C70.449,97.125,80.81,91.024,92.2,86.432c6.817-2.75,24.012-6.129,24.132-15.787-10.582-4.35-23.089.289-33.962-1.323,3.165-4.416,10.693-7.071,16.039-9.008C86.3,41.946,62.154,68.429,49.132,69.364,42.555,50.211,90.953,41.439,97.6,28.493c-3.746-3.863-10.817-4.392-16.138-2.867C72.71,22.787,54.124,40.144,46.6,45.462,35.2,53.523,18.582,67.89,18.961,83.636c6.1,1.034,18-9.073,12.206,3.516-2.63,5.72-11.665,10.4-15.9,15.409-5.316,6.289-10.4,15.848-8.986,24.419,1.1,6.674,8.961,16.57,15.249,7.781" transform="translate(8.158 33.524)" fill="#663712"/>
              <path id="Path_4252" data-name="Path 4252" d="M81.892,70.083c16.354-1.6,35.309,14.445,49.233,21.691,16.732,8.707,26.111,26.461,41.041,35.628-3.61-20.02-15.092-30.606-25.855-45.531,7.106-1.323,17.493,4.825,23.192,8.817-1.3-17.733-10.789-21.909-20.492-34.782,7.5-1.4,13.835,6.068,20.429,7.908,2-15.583-40.117-31.49-51.594-33.892.385,9.614,16.558,10.335,18.513,19.451a150.47,150.47,0,0,1-21.136-.86c6.094,4.966,17.743,13.287,18.52,21.566-12.495-5.13-35.675-11.562-49.226-9.856-9.985,1.257-10.074,5.109-2.625,9.861" transform="translate(103.446 40.394)" fill="#663712"/>
            </g>
          </g>
        </g>
      </g>
    </g>
    <g id="Group_1816" data-name="Group 1816" transform="translate(5.906 511.105)">
      <g id="Group_1813" data-name="Group 1813" transform="translate(644.609 1592.297)">
        <g id="Group_1812" data-name="Group 1812" clip-path="url(#clip-path-9)">
          <path id="Path_4291" data-name="Path 4291" d="M92.626,109.087c-34.181,33.8-74.34,4.383-74.34,4.383s34.938-44.271,74.34-4.383" transform="translate(-11.288 -57.055)" fill="#fff"/>
          <path id="Path_4292" data-name="Path 4292" d="M91.628,108.112C84.314,115.274,75.561,120.669,65.535,123a54.021,54.021,0,0,1-23.886-.227,65.3,65.3,0,0,1-23.829-10.346l0,0,.088.684A61.59,61.59,0,0,1,35.029,98.684a46.351,46.351,0,0,1,19.134-6.349,40.886,40.886,0,0,1,23.595,5.5,64.143,64.143,0,0,1,13.87,10.889.435.435,0,0,0,.615-.615c-6.7-6.724-14.534-12.415-23.708-15.171a39.947,39.947,0,0,0-21.013-.367c-10.525,2.586-19.97,9.095-27.44,16.8a41.818,41.818,0,0,0-2.794,3.119.447.447,0,0,0,.088.684c6.663,4.865,14.864,8.162,22.808,10.145A56.9,56.9,0,0,0,62.3,124.5a52.555,52.555,0,0,0,24.429-10.886,65.188,65.188,0,0,0,5.52-4.888c.4-.393-.214-1.008-.615-.615" transform="translate(-10.598 -56.387)" fill="#ecc6c4"/>
          <path id="Path_4293" data-name="Path 4293" d="M2.838,13.462C5.936,9.9,43,2.848,54.488,1.609A60.864,60.864,0,0,1,78,3.15C82.9,4.478,87.234,6.188,90.711,9.1q.192.117.018-.015c-10.5-2.682-22.821-.754-33.623.888C42.066,12.257,26.7,15.3,12.523,20.055c-3.448,1.157-6.754,2.522-10.086,3.864-3.121-1.866.4-10.457.4-10.457" transform="translate(-0.708 -0.698)" fill="#927960"/>
          <path id="Path_4294" data-name="Path 4294" d="M2.438,13.071c1.077-1.162,3.094-1.643,4.533-2.13,2.8-.946,5.671-1.688,8.537-2.4C22.8,6.724,30.173,5.244,37.56,3.891A182.143,182.143,0,0,1,57.33,1.033a60.548,60.548,0,0,1,17.178,1.18c5.38,1.166,10.866,2.98,15.187,6.5a.706.706,0,0,0,.189.122c.419.227.92-.355.527-.684-1.025-.858-3.492-.865-4.783-1.05a52.772,52.772,0,0,0-6.138-.466,95.38,95.38,0,0,0-14.418.954c-9.341,1.181-18.663,2.751-27.887,4.636A196.54,196.54,0,0,0,8.968,19.9c-2.25.823-4.468,1.733-6.688,2.63C.538,23.235.894,19.188,1,18.381a23.287,23.287,0,0,1,1.545-5.5c.211-.52-.631-.744-.84-.232a25.61,25.61,0,0,0-1.545,5.5c-.229,1.409-.527,4.947,1.448,5.49.554.152,1.715-.6,2.229-.806q1.665-.672,3.337-1.326c2.445-.954,4.924-1.8,7.423-2.6,4.97-1.589,10.018-2.932,15.093-4.14C39.629,12.4,49.7,10.707,59.8,9.2c4.946-.74,9.906-1.379,14.9-1.627a67.866,67.866,0,0,1,7.492.049c1.292.079,2.579.228,3.86.412.873.125,3.067.165,3.743.732l.528-.684c-.873-.473-1.65-1.246-2.488-1.791a26.581,26.581,0,0,0-3.159-1.705,44.808,44.808,0,0,0-7.27-2.55A58.947,58.947,0,0,0,61.438,0C54.5.033,47.582,1.252,40.766,2.438,33.328,3.731,25.916,5.2,18.562,6.91,13.448,8.1,7.867,9.152,3.14,11.539a4.6,4.6,0,0,0-1.317.917c-.381.411.233,1.028.615.615" transform="translate(0 0)" fill="#927960"/>
          <path id="Path_4295" data-name="Path 4295" d="M104.771,113.042A14.719,14.719,0,1,1,89.13,99.305a14.72,14.72,0,0,1,15.64,13.737" transform="translate(-46.52 -61.28)" fill="#6a5542"/>
          <path id="Path_4296" data-name="Path 4296" d="M103.646,112.36a14.478,14.478,0,0,1-13.309,15.213c-7.858.652-14.578-5.643-15.213-13.309-.651-7.858,5.643-14.577,13.309-15.213,7.857-.651,14.577,5.643,15.213,13.309.045.546.9.55.855,0a15.351,15.351,0,0,0-15.529-14.19c-8.15.087-14.534,7.073-14.735,15.019-.206,8.155,6.563,14.771,14.493,15.257,8.149.5,14.988-6.048,15.756-13.953a14.866,14.866,0,0,0,.015-2.133c-.025-.549-.881-.552-.855,0" transform="translate(-45.823 -60.599)" fill="#6a5542"/>
          <path id="Path_4297" data-name="Path 4297" d="M110.514,128.94a6.467,6.467,0,1,1-6.871-6.035,6.467,6.467,0,0,1,6.871,6.035" transform="translate(-60.243 -75.859)" fill="#493930"/>
          <path id="Path_4298" data-name="Path 4298" d="M109.4,128.256a6.033,6.033,0,1,1-6.436-5.6,6.14,6.14,0,0,1,6.436,5.6c.058.552.929.558.87,0a7.028,7.028,0,0,0-7.306-6.47c-3.859.094-6.559,3.655-6.47,7.306.093,3.859,3.655,6.559,7.306,6.47,3.859-.094,6.559-3.655,6.47-7.306a.435.435,0,0,0-.87,0" transform="translate(-59.56 -75.175)" fill="#493930"/>
          <path id="Path_4299" data-name="Path 4299" d="M129.967,116.933a3.192,3.192,0,1,1-3.391-2.978,3.192,3.192,0,0,1,3.391,2.978" transform="translate(-76.29 -70.338)" fill="#fff"/>
          <path id="Path_4300" data-name="Path 4300" d="M128.841,116.242a2.759,2.759,0,0,1-5.5.413c-.421-3.537,5.08-3.931,5.5-.413.065.55.937.557.87,0a3.705,3.705,0,0,0-3.826-3.413,3.626,3.626,0,1,0,3.826,3.413.435.435,0,0,0-.87,0" transform="translate(-75.6 -69.647)" fill="#fff"/>
          <path id="Path_4301" data-name="Path 4301" d="M28.718,101.8C39.687,91,53.484,81.926,69.392,81.926c12.368,0,23.757,5.972,32.886,13.94.421.367,1.039-.245.615-.615-9.38-8.188-20.841-14.055-33.5-14.2-16.068-.179-30.257,9.266-41.29,20.134-.4.394.215,1.009.615.615" transform="translate(-17.267 -50.032)" fill="#c5ac88"/>
          <path id="Path_4302" data-name="Path 4302" d="M14.075,99.466C37.7,69.681,63.764,75.108,63.764,75.108a37,37,0,0,0,13.943-8.473,34.319,34.319,0,0,1-8.639,9.509c3.846,2.676,12.211-2.9,15.6-5.119-1.637,3.692-5.015,5.845-8.685,7.691,2.929,2.572,9.989.967,16,1.066-3.287,1.547-7.974,1.676-10.134,2.978,3.3,2,9.336,2.583,15.118,3.438-4.337.922-6.959.413-10.038.877a60.742,60.742,0,0,0,12.174,3.6,34.7,34.7,0,0,1-10.687-.779c.6,1.425,1.175,4.322,1.845,5.644-38.082-41.614-76.191,3.929-76.191,3.929" transform="translate(-8.688 -41.133)" fill="#8c7261"/>
          <path id="Path_4303" data-name="Path 4303" d="M13.711,99.086C23.38,87,36.4,77.209,52.017,74.906A37.75,37.75,0,0,1,62.1,74.7a6.4,6.4,0,0,0,3.559-.76,37.814,37.814,0,0,0,11.688-7.686l-.684-.528a33.21,33.21,0,0,1-8.483,9.352.442.442,0,0,0,0,.752c2.412,1.507,5.447.51,7.857-.484a50.223,50.223,0,0,0,8.184-4.634l-.6-.6c-1.736,3.656-5.037,5.756-8.528,7.535a.436.436,0,0,0-.088.684c1.718,1.366,3.9,1.553,6.021,1.6,3.432.07,6.854-.429,10.288-.4l-.219-.811c-3.231,1.423-7.035,1.287-10.134,2.978a.439.439,0,0,0,0,.752c4.489,2.56,10.221,2.752,15.223,3.482v-.839c-3.337.664-6.689.424-10.038.877-.482.065-.341.7,0,.839a57.337,57.337,0,0,0,12.174,3.6q.057-.428.116-.855a34.857,34.857,0,0,1-10.571-.764c-.294-.075-.661.212-.535.535.732,1.882,1.045,3.907,1.889,5.747l.684-.527c-6.483-7.021-14.2-12.973-23.4-15.894a40.177,40.177,0,0,0-21.444-.55c-11.013,2.619-20.95,9.309-28.942,17.167-1.045,1.028-2.082,2.082-3.024,3.206-.358.427.254,1.046.615.615A67.322,67.322,0,0,1,32,84.29a48.788,48.788,0,0,1,19.9-6.417,40.2,40.2,0,0,1,23.808,5.9A61.587,61.587,0,0,1,89.288,95.157c.358.387.878-.1.684-.527-.812-1.769-1.1-3.73-1.8-5.54l-.535.535a35.63,35.63,0,0,0,10.8.795c.464-.026.624-.77.116-.855a57.35,57.35,0,0,1-12.174-3.6v.839c3.348-.452,6.7-.213,10.038-.877.406-.081.427-.777,0-.839-4.9-.716-10.613-.884-15.015-3.394v.752c3.077-1.679,6.912-1.558,10.134-2.978.415-.183.183-.808-.22-.811-2.667-.02-5.323.219-7.985.352-2.486.124-5.639.354-7.709-1.291q-.044.342-.088.684c3.622-1.845,7.044-4.064,8.841-7.847.173-.364-.2-.854-.6-.6a65.332,65.332,0,0,1-6.735,3.977c-2.379,1.178-5.9,2.719-8.428,1.142v.752a34.308,34.308,0,0,0,8.8-9.664c.269-.431-.331-.86-.684-.528A37.464,37.464,0,0,1,63.593,73.8a4.073,4.073,0,0,1-1.975-.021,40.478,40.478,0,0,0-10.805.442C35.487,76.7,22.589,86.6,13.1,98.471c-.347.434.265,1.054.615.615" transform="translate(-8.017 -40.445)" fill="#8c7261"/>
        </g>
      </g>
      <g id="Group_1815" data-name="Group 1815" transform="translate(518.488 1592.297)">
        <g id="Group_1812-2" data-name="Group 1812" transform="translate(0)" clip-path="url(#clip-path-9)">
          <path id="Path_4291-2" data-name="Path 4291" d="M18.286,109.087c34.181,33.8,74.34,4.383,74.34,4.383S57.687,69.2,18.286,109.087" transform="translate(-8.775 -57.055)" fill="#fff"/>
          <path id="Path_4292-2" data-name="Path 4292" d="M17.915,108.112c7.314,7.162,16.068,12.557,26.094,14.891a54.021,54.021,0,0,0,23.886-.227,65.3,65.3,0,0,0,23.829-10.346l0,0-.088.684A61.59,61.59,0,0,0,74.514,98.684,46.351,46.351,0,0,0,55.38,92.335a40.886,40.886,0,0,0-23.595,5.5,64.143,64.143,0,0,0-13.87,10.889.435.435,0,0,1-.615-.615C24,101.388,31.833,95.7,41.008,92.941a39.946,39.946,0,0,1,21.013-.367c10.525,2.586,19.97,9.095,27.44,16.8a41.819,41.819,0,0,1,2.794,3.119.447.447,0,0,1-.088.684c-6.663,4.865-14.864,8.162-22.808,10.145a56.9,56.9,0,0,1-22.11,1.178,52.555,52.555,0,0,1-24.429-10.886,65.188,65.188,0,0,1-5.52-4.888c-.4-.393.214-1.008.615-.615" transform="translate(-8.096 -56.387)" fill="#ecc6c4"/>
          <path id="Path_4293-2" data-name="Path 4293" d="M89.121,13.462C86.023,9.9,48.956,2.848,37.471,1.609A60.863,60.863,0,0,0,13.96,3.15C9.061,4.478,4.726,6.188,1.248,9.1q-.192.117-.018-.015c10.5-2.682,22.821-.754,33.623.888,15.04,2.286,30.408,5.327,44.583,10.083,3.448,1.157,6.754,2.522,10.086,3.864,3.121-1.866-.4-10.457-.4-10.457" transform="translate(-0.402 -0.698)" fill="#927960"/>
          <path id="Path_4294-2" data-name="Path 4294" d="M88.116,13.071c-1.077-1.162-3.094-1.643-4.533-2.13-2.8-.946-5.671-1.688-8.537-2.4C67.757,6.724,60.38,5.244,52.993,3.891a182.143,182.143,0,0,0-19.77-2.858,60.548,60.548,0,0,0-17.178,1.18C10.665,3.379,5.18,5.193.858,8.708a.706.706,0,0,1-.189.122c-.419.227-.92-.355-.527-.684,1.025-.858,3.492-.865,4.783-1.05a52.771,52.771,0,0,1,6.138-.466,95.38,95.38,0,0,1,14.418.954c9.341,1.181,18.663,2.751,27.887,4.636A196.539,196.539,0,0,1,81.586,19.9c2.25.823,4.468,1.733,6.688,2.63,1.742.7,1.385-3.343,1.275-4.151A23.287,23.287,0,0,0,88,12.879c-.211-.52.631-.744.84-.232a25.609,25.609,0,0,1,1.545,5.5c.229,1.409.527,4.947-1.448,5.49-.554.152-1.715-.6-2.229-.806q-1.665-.672-3.337-1.326c-2.445-.954-4.924-1.8-7.423-2.6-4.97-1.589-10.018-2.932-15.093-4.14C50.925,12.4,40.851,10.707,30.757,9.2c-4.946-.74-9.906-1.379-14.9-1.627a67.866,67.866,0,0,0-7.492.049c-1.292.079-2.579.228-3.86.412-.873.125-3.067.165-3.743.732L.23,8.079C1.1,7.606,1.88,6.833,2.718,6.288A26.581,26.581,0,0,1,5.877,4.583a44.808,44.808,0,0,1,7.27-2.55A58.947,58.947,0,0,1,29.115,0c6.938.033,13.856,1.251,20.672,2.437,7.438,1.293,14.85,2.764,22.2,4.473,5.115,1.188,10.7,2.242,15.423,4.629a4.6,4.6,0,0,1,1.317.917c.381.411-.233,1.028-.615.615" transform="translate(0.295 0)" fill="#927960"/>
          <path id="Path_4295-2" data-name="Path 4295" d="M75.394,113.042a14.719,14.719,0,1,0,15.64-13.737,14.72,14.72,0,0,0-15.64,13.737" transform="translate(-42.795 -61.28)" fill="#6a5542"/>
          <path id="Path_4296-2" data-name="Path 4296" d="M75.119,112.36a14.478,14.478,0,0,0,13.309,15.213c7.858.652,14.578-5.643,15.213-13.309.651-7.858-5.643-14.577-13.309-15.213-7.857-.651-14.577,5.643-15.213,13.309-.045.546-.9.55-.855,0a15.351,15.351,0,0,1,15.529-14.19c8.15.087,14.534,7.073,14.735,15.019.206,8.155-6.563,14.771-14.493,15.257-8.149.5-14.988-6.048-15.756-13.953a14.865,14.865,0,0,1-.015-2.133c.025-.549.881-.552.855,0" transform="translate(-42.093 -60.599)" fill="#6a5542"/>
          <path id="Path_4297-2" data-name="Path 4297" d="M97.608,128.94a6.467,6.467,0,1,0,6.871-6.035,6.467,6.467,0,0,0-6.871,6.035" transform="translate(-57.03 -75.859)" fill="#493930"/>
          <path id="Path_4298-2" data-name="Path 4298" d="M97.361,128.256a6.033,6.033,0,1,0,6.436-5.6,6.14,6.14,0,0,0-6.436,5.6c-.058.552-.929.558-.87,0a7.028,7.028,0,0,1,7.306-6.47c3.859.094,6.559,3.655,6.47,7.306-.093,3.859-3.655,6.559-7.306,6.47-3.859-.094-6.559-3.655-6.47-7.306a.435.435,0,0,1,.87,0" transform="translate(-56.347 -75.175)" fill="#493930"/>
          <path id="Path_4299-2" data-name="Path 4299" d="M123.6,116.933a3.192,3.192,0,1,0,3.391-2.978,3.192,3.192,0,0,0-3.391,2.978" transform="translate(-86.425 -70.338)" fill="#fff"/>
          <path id="Path_4300-2" data-name="Path 4300" d="M123.345,116.242a2.759,2.759,0,0,0,5.5.413c.421-3.537-5.08-3.931-5.5-.413-.065.55-.937.557-.87,0a3.705,3.705,0,0,1,3.826-3.413,3.626,3.626,0,1,1-3.826,3.413.435.435,0,0,1,.87,0" transform="translate(-85.738 -69.647)" fill="#fff"/>
          <path id="Path_4301-2" data-name="Path 4301" d="M102.29,101.8C91.32,91,77.524,81.926,61.616,81.926c-12.368,0-23.757,5.972-32.886,13.94-.421.367-1.039-.245-.615-.615,9.38-8.188,20.841-14.055,33.5-14.2,16.068-.179,30.257,9.266,41.29,20.133.4.394-.215,1.009-.615.615" transform="translate(-22.892 -50.032)" fill="#c5ac88"/>
          <path id="Path_4302-2" data-name="Path 4302" d="M99.107,99.466C75.48,69.681,49.418,75.108,49.418,75.108a37,37,0,0,1-13.943-8.473,34.319,34.319,0,0,0,8.639,9.509c-3.846,2.676-12.211-2.9-15.6-5.119,1.637,3.692,5.015,5.845,8.685,7.691-2.929,2.572-9.989.967-16,1.066,3.287,1.547,7.974,1.676,10.134,2.978-3.3,2-9.336,2.583-15.118,3.438,4.337.922,6.959.413,10.038.877a60.741,60.741,0,0,1-12.174,3.6,34.7,34.7,0,0,0,10.687-.779c-.6,1.425-1.175,4.322-1.845,5.644C61,53.924,99.107,99.466,99.107,99.466" transform="translate(-13.645 -41.133)" fill="#8c7261"/>
          <path id="Path_4303-2" data-name="Path 4303" d="M98.142,99.086C88.473,87,75.455,77.209,59.836,74.906a37.75,37.75,0,0,0-10.079-.2,6.4,6.4,0,0,1-3.559-.76A37.814,37.814,0,0,1,34.51,66.255l.684-.528a33.211,33.211,0,0,0,8.483,9.352.442.442,0,0,1,0,.752c-2.412,1.507-5.447.51-7.857-.484a50.223,50.223,0,0,1-8.184-4.634l.6-.6c1.736,3.656,5.037,5.756,8.528,7.535a.436.436,0,0,1,.088.684c-1.718,1.366-3.9,1.553-6.021,1.6-3.432.07-6.854-.429-10.288-.4l.219-.811c3.231,1.423,7.035,1.287,10.134,2.978a.439.439,0,0,1,0,.752C26.4,85.008,20.67,85.2,15.668,85.93v-.839c3.337.664,6.689.424,10.038.877.482.065.341.7,0,.839a57.337,57.337,0,0,1-12.174,3.6q-.057-.428-.116-.855a34.858,34.858,0,0,0,10.571-.764c.294-.075.661.212.535.535-.732,1.882-1.045,3.907-1.889,5.747l-.684-.527c6.483-7.021,14.2-12.973,23.4-15.894a40.177,40.177,0,0,1,21.444-.55c11.013,2.619,20.95,9.309,28.942,17.167,1.045,1.028,2.082,2.082,3.024,3.206.358.427-.254,1.046-.615.615a67.322,67.322,0,0,0-18.288-14.8,48.788,48.788,0,0,0-19.9-6.417,40.2,40.2,0,0,0-23.808,5.9A61.587,61.587,0,0,0,22.566,95.157c-.358.387-.878-.1-.684-.527.812-1.769,1.1-3.73,1.8-5.54l.535.535a35.63,35.63,0,0,1-10.8.795c-.464-.026-.624-.77-.116-.855a57.35,57.35,0,0,0,12.174-3.6v.839c-3.348-.452-6.7-.213-10.038-.877-.406-.081-.427-.777,0-.839,4.9-.716,10.613-.884,15.015-3.394v.752c-3.077-1.679-6.912-1.558-10.134-2.978-.415-.183-.183-.808.22-.811,2.667-.02,5.323.219,7.985.352,2.486.124,5.639.354,7.709-1.291q.044.342.088.684c-3.622-1.845-7.044-4.064-8.841-7.847-.173-.364.2-.854.6-.6a65.333,65.333,0,0,0,6.735,3.977c2.379,1.178,5.9,2.719,8.428,1.142v.752a34.308,34.308,0,0,1-8.8-9.664c-.269-.431.331-.86.684-.528A37.464,37.464,0,0,0,48.26,73.8a4.073,4.073,0,0,0,1.975-.021,40.478,40.478,0,0,1,10.805.442C76.366,76.7,89.264,86.6,98.757,98.471c.347.434-.265,1.054-.615.615" transform="translate(-12.987 -40.445)" fill="#8c7261"/>
        </g>
      </g>
    </g>
  </g>
</svg>
