<svg xmlns="http://www.w3.org/2000/svg" width="127.346" height="120" viewBox="0 0 127.346 120">
  <g id="Group_188" data-name="Group 188" transform="translate(-210.437 -564.066)">
    <path id="Path_1330" data-name="Path 1330" d="M293.98,660.016v.144h1.07a1.773,1.773,0,0,0,1.1-.328,1.222,1.222,0,0,0,.486-1.015,1.1,1.1,0,0,0-.35-.847,1.557,1.557,0,0,0-1.113-.339H293.98v.144c.289.023.332.054.332.382v1.478C294.312,659.956,294.277,659.991,293.98,660.016Zm.872-1.949c0-.113.008-.18.043-.214a.34.34,0,0,1,.234-.056.821.821,0,0,1,.626.219,1.2,1.2,0,0,1,.28.859c0,.735-.3,1.1-.83,1.1-.284,0-.354-.093-.354-.369Z" transform="translate(-23.802 -26.657)" fill="#97c9d5"/>
    <path id="Path_1331" data-name="Path 1331" d="M310.753,659.994v.144h1.129v-.144c-.253-.032-.288-.059-.432-.42-.253-.649-.518-1.342-.767-2.019l-.187.034-.809,2.012c-.132.326-.195.361-.439.393v.144h.961v-.144c-.307-.028-.4-.059-.319-.3.039-.121.094-.268.136-.389h.759c.058.155.12.33.159.447C311,659.915,311,659.958,310.753,659.994Zm-.661-.891c.1-.285.206-.546.319-.825l.3.825Z" transform="translate(-28.152 -26.635)" fill="#97c9d5"/>
    <path id="Path_1332" data-name="Path 1332" d="M299.391,600.451a21.027,21.027,0,0,1,20.821,24.135,1.235,1.235,0,0,0-.164-.016,1.191,1.191,0,1,0,.895.42,21.814,21.814,0,0,0-21.03-25.307l1.932-2.842a24.654,24.654,0,0,1,4.3.821,1.17,1.17,0,0,0,2.09.694,24.759,24.759,0,0,1,15.007,29.863l.652.562a25.549,25.549,0,0,0-15.4-31.162,1.173,1.173,0,0,0-2.112-.7,25.325,25.325,0,0,0-4.046-.805l1.671-2.46a28.305,28.305,0,0,1,20.41,14.807,1.157,1.157,0,0,0,.956,2,28.173,28.173,0,0,1,.713,20.209l.638.55a28.974,28.974,0,0,0-.646-21.1,1.176,1.176,0,0,0-.837-2c-.039,0-.075.008-.112.011a29.094,29.094,0,0,0-20.776-15.214l-4.964-28.854v36.385Z" transform="translate(-25.343)" fill="#97c9d5"/>
    <path id="Path_1333" data-name="Path 1333" d="M301.2,657.774v-.144H300v.144c.292.023.332.054.332.382v1.482c0,.327-.035.35-.332.378v.144h1.2v-.144c-.3-.032-.331-.055-.331-.378v-1.482C300.87,657.828,300.909,657.8,301.2,657.774Z" transform="translate(-25.516 -26.657)" fill="#97c9d5"/>
    <path id="Path_1334" data-name="Path 1334" d="M288.751,660.015v.141h2.019c.035-.109.144-.557.164-.661l-.145-.035a1.642,1.642,0,0,1-.237.388c-.086.105-.144.132-.362.132h-.276c-.241,0-.249-.085-.249-.354v-.669h.377c.226,0,.257.046.319.335h.152v-.868h-.152c-.058.276-.1.335-.315.335h-.381v-.812c0-.132.016-.14.163-.14h.253c.2,0,.249.022.319.1a1,1,0,0,1,.168.362l.152-.019c-.016-.242-.035-.561-.04-.631-.054,0-.19.008-.6.008h-1.264v.144c.264.023.311.046.311.378v1.486C289.129,659.961,289.1,659.98,288.751,660.015Z" transform="translate(-22.312 -26.654)" fill="#97c9d5"/>
    <path id="Path_1335" data-name="Path 1335" d="M289.815,629.305c2.046.233,2.331.311,2.331,2.513v10.336c0,2.2-.182,2.305-2.331,2.539v.725h6.916v-.725c-2.072-.207-2.357-.337-2.357-2.539v-4.067h.907c1.321,0,1.658.155,2.176.984.829,1.321,1.761,2.953,2.719,4.274a4.6,4.6,0,0,0,4.041,2.228c.337.026.622.052.959.052l.1-.725a3.733,3.733,0,0,1-1.891-1.192,23.734,23.734,0,0,1-2.046-2.668c-.777-1.166-1.891-2.9-2.358-3.7,1.917-.829,3.342-2.228,3.342-4.456a3.871,3.871,0,0,0-1.761-3.419,7.311,7.311,0,0,0-4.145-.881h-6.605Zm4.559,1.555c0-.674.078-.933.311-1.114a2.371,2.371,0,0,1,1.373-.259c1.994,0,3.834,1.01,3.834,3.782a3.642,3.642,0,0,1-1.424,3.186,4.173,4.173,0,0,1-2.85.751h-1.244Z" transform="translate(-22.615 -18.38)" fill="#97c9d5"/>
    <path id="Path_1336" data-name="Path 1336" d="M305.44,657.733a.952.952,0,0,1,.338.055.667.667,0,0,1,.405.528l.156-.027c-.028-.171-.055-.458-.074-.642a4.148,4.148,0,0,0-.736-.093,1.378,1.378,0,0,0-1.548,1.349,1.314,1.314,0,0,0,1.479,1.293,3.261,3.261,0,0,0,.716-.1,5.469,5.469,0,0,0,.218-.626l-.148-.059c-.21.428-.428.6-.755.6-.533,0-.9-.483-.9-1.2C304.592,658.2,304.876,657.733,305.44,657.733Z" transform="translate(-26.651 -26.635)" fill="#97c9d5"/>
    <path id="Path_1337" data-name="Path 1337" d="M314.787,660.016v.144h1.929c.035-.106.144-.518.174-.685l-.147-.046a1.613,1.613,0,0,1-.245.4.392.392,0,0,1-.373.152c-.016,0-.195,0-.2,0-.215,0-.221-.1-.221-.315v-1.509c0-.328.039-.355.342-.382v-.144H314.83v.144c.291.023.33.054.33.382v1.482C315.16,659.964,315.129,659.991,314.787,660.016Z" transform="translate(-29.73 -26.657)" fill="#97c9d5"/>
    <path id="Path_1338" data-name="Path 1338" d="M284.052,660.016v.144h1.183v-.144c-.315-.044-.33-.059-.335-.409l-.031-1.459c-.008-.311.027-.343.338-.374v-.144h-.822l-.754,1.716-.752-1.716h-.84v.144c.334.031.361.136.35.323-.09,1.284-.106,1.505-.122,1.623-.031.233-.132.277-.353.3v.144h.965v-.144c-.292-.028-.369-.082-.373-.292,0-.14,0-.381.051-1.6.28.68.556,1.4.809,2.039h.128c.281-.661.588-1.4.868-2.07l0,1.517C284.367,659.956,284.347,659.983,284.052,660.016Z" transform="translate(-20.365 -26.657)" fill="#97c9d5"/>
    <path id="Path_1339" data-name="Path 1339" d="M361.409,725.5l-.059-5.711c-.03-1.041.134-1.176,1.413-1.324v-.416h-2.6l-3.525,7.541-3.287-7.541h-2.589v.416c1.309.119,1.458.372,1.4,1.146-.387,5.429-.4,5.965-.491,6.619-.119.8-.476.982-1.339,1.071v.416h3.525V727.3c-1.012-.1-1.384-.223-1.4-1.056,0-.282.014-1.457.267-6.664,1.131,2.692,2.811,6.783,3.317,8.136h.387c.521-1.309,2.484-5.563,3.7-8.285l-.015,6.069c.015,1.592-.03,1.68-1.25,1.8v.416h3.957V727.3C361.514,727.162,361.469,727.088,361.409,725.5Z" transform="translate(-39.856 -43.869)" fill="#97c9d5"/>
    <path id="Path_1340" data-name="Path 1340" d="M331.921,722.082c-1.235-.64-1.889-1.161-1.889-2.187a1.483,1.483,0,0,1,1.562-1.621c1.4,0,1.815.967,2.067,1.949l.461-.089c-.119-.967-.179-1.562-.238-2.1a9.532,9.532,0,0,0-1.963-.282c-1.964,0-3.064,1.249-3.064,2.573,0,1.384.877,2.1,2.439,2.945,1.309.714,1.919,1.175,1.919,2.321a1.635,1.635,0,0,1-1.726,1.711,2.716,2.716,0,0,1-2.5-2.29l-.461.119a20.283,20.283,0,0,0,.4,2.231,6.2,6.2,0,0,0,2.275.49c1.919,0,3.273-1.19,3.273-2.752C334.479,723.688,333.706,723,331.921,722.082Z" transform="translate(-33.645 -43.786)" fill="#97c9d5"/>
    <path id="Path_1341" data-name="Path 1341" d="M314.277,718.46c1.1.06,1.443.313,1.487.982.03.4.074.967.074,2.335v1.517c0,2.469-.669,3.779-2.781,3.779-1.785,0-2.812-1.19-2.812-3.362v-3.718c0-1.339.119-1.458,1.309-1.532v-.416h-3.912v.416c1.19.1,1.309.194,1.309,1.532v3.793c0,1.741.431,2.767,1.324,3.451a4.04,4.04,0,0,0,2.439.684,3.665,3.665,0,0,0,2.737-.953,4.816,4.816,0,0,0,1.042-3.585v-1.606c0-1.369.029-1.993.044-2.335.029-.684.372-.922,1.309-.982v-.416h-3.57Z" transform="translate(-27.695 -43.869)" fill="#97c9d5"/>
    <path id="Path_1342" data-name="Path 1342" d="M308.884,659.349a21.214,21.214,0,0,1-3.61,4.532,1.165,1.165,0,0,0-.55-.142,1.177,1.177,0,0,0-1.177,1.177,1.157,1.157,0,0,0,.072.391,20.982,20.982,0,0,1-20.294,3.031c0-.009,0-.016,0-.025a1.175,1.175,0,0,0-1.99-.848,21.088,21.088,0,0,1-3.785-2.441l-.864.3a21.953,21.953,0,0,0,4.3,2.839,1.169,1.169,0,0,0,2.057.909,21.78,21.78,0,0,0,21.063-3.155,1.175,1.175,0,0,0,1.7-1.462,22.008,22.008,0,0,0,3.46-4.233l1.486,3.061a24.809,24.809,0,0,1-16.112,9.848,1.169,1.169,0,0,0-2.165.247q-.848.059-1.712.059a24.671,24.671,0,0,1-16.513-6.33,1.174,1.174,0,1,0-1.04.636,1.185,1.185,0,0,0,.465-.1,25.46,25.46,0,0,0,17.089,6.57q.89,0,1.767-.061a1.175,1.175,0,0,0,2.232-.255,25.584,25.584,0,0,0,16.372-9.832l1.292,2.661a28.187,28.187,0,0,1-42.518.933l-.8.275a28.958,28.958,0,0,0,43.738-.5l27.563,10.109-31.539-18.138Zm-.009.066,0,0v0Z" transform="translate(-16.716 -27.147)" fill="#97c9d5"/>
    <path id="Path_1343" data-name="Path 1343" d="M383.374,719.338c-.922-.878-2.246-1.294-4.343-1.294H374.9v.416c1.16.119,1.339.179,1.339,1.458v5.935c0,1.22-.059,1.324-1.339,1.443v.416h3.48a7.075,7.075,0,0,0,4.4-1.175,4.887,4.887,0,0,0,1.859-4.016A4.3,4.3,0,0,0,383.374,719.338Zm-4.254,7.824c-1.116,0-1.592-.312-1.592-1.428v-6.128c0-.58.06-.744.194-.833a2.113,2.113,0,0,1,1.175-.208,4.709,4.709,0,0,1,2.544.595,3.869,3.869,0,0,1,1.726,3.57C383.166,725.332,381.8,727.162,379.12,727.162Z" transform="translate(-46.855 -43.869)" fill="#97c9d5"/>
    <path id="Path_1344" data-name="Path 1344" d="M218.231,726.73a13.679,13.679,0,0,1-1.175-1.532c-.446-.669-1.086-1.666-1.354-2.127a2.758,2.758,0,0,0,1.919-2.559,2.223,2.223,0,0,0-1.011-1.964,4.2,4.2,0,0,0-2.38-.505h-3.793v.416c1.175.134,1.339.179,1.339,1.443v5.935c0,1.264-.1,1.324-1.339,1.458v.416h3.971V727.3c-1.19-.119-1.353-.194-1.353-1.458V723.5h.521c.758,0,.952.089,1.249.565.476.759,1.011,1.7,1.562,2.454a2.639,2.639,0,0,0,2.32,1.279c.193.015.357.03.55.03l.06-.417A2.14,2.14,0,0,1,218.231,726.73Zm-2.826-4.165a2.393,2.393,0,0,1-1.636.432h-.714v-3.644c0-.387.044-.536.178-.64a1.361,1.361,0,0,1,.789-.149,2,2,0,0,1,2.2,2.172A2.09,2.09,0,0,1,215.4,722.566Z" transform="translate(0 -43.869)" fill="#97c9d5"/>
    <path id="Path_1345" data-name="Path 1345" d="M235.008,726.585c-.327.387-.476.521-1.383.521h-1.383c-.744-.015-1.071-.1-1.071-1.145V723h1.636c1.07,0,1.19.149,1.383,1.22h.461v-3.064h-.461c-.178,1.012-.252,1.234-1.368,1.234h-1.651V719.1c0-.432.03-.476.491-.476h1.413c.892,0,1.235.1,1.473.595a4.983,4.983,0,0,1,.446,1.131l.446-.074c-.06-.789-.119-1.9-.134-2.276-.178.015-.758.03-2.157.03H228.6v.416c1.116.1,1.279.179,1.279,1.5v5.875c0,1.22-.1,1.354-1.487,1.458v.416h7.229c.149-.446.551-1.978.64-2.365l-.446-.119A6.38,6.38,0,0,1,235.008,726.585Z" transform="translate(-5.115 -43.857)" fill="#97c9d5"/>
    <path id="Path_1346" data-name="Path 1346" d="M230.139,661.8l30.8-17.908,0,.006.674-.387.007.006a20.97,20.97,0,0,1-2.069-4.611,1.173,1.173,0,0,0-.547-2.213H259a21.049,21.049,0,0,1,13.484-23.8l.168-.881a21.819,21.819,0,0,0-14.393,24.961,1.172,1.172,0,0,0,.517,2.054,21.738,21.738,0,0,0,1.905,4.421l-3.45-.242a24.754,24.754,0,0,1-1.253-17.818,1.172,1.172,0,0,0,.746-2.075,24.9,24.9,0,0,1,16.552-14.576l.162-.85a25.673,25.673,0,0,0-17.447,15.149l-.021,0a1.172,1.172,0,0,0-.731,2.092,25.531,25.531,0,0,0,1.105,18.017l-2.986-.21a28,28,0,0,1-1.808-7.661,1.171,1.171,0,0,0-.112-2.047c0-.18-.009-.36-.009-.542a28.281,28.281,0,0,1,21.795-27.488,1.172,1.172,0,1,0-.259-.74,29.062,29.062,0,0,0-22.317,28.228c0,.152.005.3.008.453a1.172,1.172,0,0,0,.126,2.306,28.751,28.751,0,0,0,1.78,7.589Z" transform="translate(-5.613 -11.173)" fill="#97c9d5"/>
    <path id="Path_1347" data-name="Path 1347" d="M249.692,722.082c-1.235-.64-1.889-1.161-1.889-2.187a1.483,1.483,0,0,1,1.562-1.621c1.4,0,1.815.967,2.067,1.949l.461-.089c-.119-.967-.179-1.562-.238-2.1a9.522,9.522,0,0,0-1.963-.282c-1.964,0-3.064,1.249-3.064,2.573,0,1.384.877,2.1,2.439,2.945,1.309.714,1.919,1.175,1.919,2.321a1.635,1.635,0,0,1-1.726,1.711,2.716,2.716,0,0,1-2.5-2.29l-.461.119a20.279,20.279,0,0,0,.4,2.231,6.2,6.2,0,0,0,2.275.49c1.919,0,3.272-1.19,3.272-2.752C252.25,723.688,251.477,723,249.692,722.082Z" transform="translate(-10.218 -43.786)" fill="#97c9d5"/>
    <path id="Path_1348" data-name="Path 1348" d="M269.4,717.753a5.42,5.42,0,0,0-1.265.15,4.9,4.9,0,0,0-1.187-.15,4.957,4.957,0,0,0-5.027,5.132,4.841,4.841,0,0,0,4.938,4.968,5.2,5.2,0,0,1,2.452,0,4.843,4.843,0,0,0,4.908-5.191A4.781,4.781,0,0,0,269.4,717.753Zm-1.064,9.286c-1.455-.62-2.416-2.356-2.416-4.556,0-2.093.859-3.4,1.994-3.922,1.348.573,2.336,2.1,2.336,4.517C270.252,725.239,269.485,726.531,268.338,727.039Zm-4.868-4.556c0-2.781,1.517-4.179,3.183-4.179a3.507,3.507,0,0,1,.36.019,5.09,5.09,0,0,0-2.637,4.562,4.874,4.874,0,0,0,2.556,4.393C264.908,727.171,263.47,725.175,263.47,722.483Zm6.081,4.8c-.1,0-.2-.009-.3-.018a5,5,0,0,0,2.518-4.608,4.788,4.788,0,0,0-2.55-4.352c1.9.064,3.485,1.707,3.485,4.768C272.7,725.949,271.351,727.287,269.551,727.287Z" transform="translate(-14.669 -43.786)" fill="#97c9d5"/>
    <path id="Path_1349" data-name="Path 1349" d="M292.937,718.46c1.19.074,1.532.283,1.577.953.044.446.074,1.086.074,2.469v3.645l-6.307-7.482H286.05v.416c.729.074,1.041.164,1.324.536a1.3,1.3,0,0,1,.3.982v3.793c0,1.354-.029,2.023-.074,2.5-.06.729-.417.952-1.339,1.026v.416h3.615V727.3c-1.071-.089-1.443-.312-1.472-1.071-.03-.431-.075-1.1-.075-2.439v-3.719l6.367,7.78h.566v-5.965c0-1.383.029-2.008.044-2.484.044-.684.357-.833,1.309-.937v-.416h-3.673Z" transform="translate(-21.543 -43.869)" fill="#97c9d5"/>
  </g>
</svg>
