<svg xmlns="http://www.w3.org/2000/svg" xmlns:xlink="http://www.w3.org/1999/xlink" width="424.003" height="599.414" viewBox="0 0 424.003 599.414">
  <defs>
    <filter id="Ellipse_59" x="140.043" y="208" width="22" height="22" filterUnits="userSpaceOnUse">
      <feOffset input="SourceAlpha"/>
      <feGaussianBlur stdDeviation="2" result="blur"/>
      <feFlood flood-color="#fff"/>
      <feComposite operator="in" in2="blur"/>
      <feComposite in="SourceGraphic"/>
    </filter>
    <filter id="Ellipse_60" x="262.043" y="208" width="22" height="22" filterUnits="userSpaceOnUse">
      <feOffset input="SourceAlpha"/>
      <feGaussianBlur stdDeviation="2" result="blur-2"/>
      <feFlood flood-color="#fff"/>
      <feComposite operator="in" in2="blur-2"/>
      <feComposite in="SourceGraphic"/>
    </filter>
    <filter id="Ellipse_61" x="140.043" y="371" width="22" height="22" filterUnits="userSpaceOnUse">
      <feOffset input="SourceAlpha"/>
      <feGaussianBlur stdDeviation="2" result="blur-3"/>
      <feFlood flood-color="#fff"/>
      <feComposite operator="in" in2="blur-3"/>
      <feComposite in="SourceGraphic"/>
    </filter>
    <filter id="Ellipse_62" x="262.043" y="371" width="22" height="22" filterUnits="userSpaceOnUse">
      <feOffset input="SourceAlpha"/>
      <feGaussianBlur stdDeviation="2" result="blur-4"/>
      <feFlood flood-color="#fff"/>
      <feComposite operator="in" in2="blur-4"/>
      <feComposite in="SourceGraphic"/>
    </filter>
  </defs>
  <g id="Group_363" data-name="Group 363" transform="translate(-15.957)" opacity="0.415">
    <g id="Group_330" data-name="Group 330" transform="translate(112.144 573.001)">
      <path id="Path_1363" data-name="Path 1363" d="M365.024,331.859l4.993,5.847h-9.986Z" transform="translate(-249.209 -313.369)" fill="#fff"/>
      <g id="Group_286" data-name="Group 286">
        <rect id="Rectangle_1256" data-name="Rectangle 1256" width="1.642" height="15.977" fill="#fff"/>
      </g>
      <g id="Group_287" data-name="Group 287" transform="translate(6.16 7.988)">
        <rect id="Rectangle_1257" data-name="Rectangle 1257" width="0.821" height="7.988" fill="#fff"/>
      </g>
      <g id="Group_288" data-name="Group 288" transform="translate(11.91 7.988)">
        <rect id="Rectangle_1258" data-name="Rectangle 1258" width="0.821" height="7.988" fill="#fff"/>
      </g>
      <g id="Group_289" data-name="Group 289" transform="translate(17.66 7.988)">
        <rect id="Rectangle_1259" data-name="Rectangle 1259" width="0.821" height="7.988" fill="#fff"/>
      </g>
      <g id="Group_290" data-name="Group 290" transform="translate(23.41 7.988)">
        <rect id="Rectangle_1260" data-name="Rectangle 1260" width="0.821" height="7.988" fill="#fff"/>
      </g>
      <g id="Group_291" data-name="Group 291" transform="translate(28.75)">
        <rect id="Rectangle_1261" data-name="Rectangle 1261" width="1.642" height="15.977" fill="#fff"/>
      </g>
      <g id="Group_292" data-name="Group 292" transform="translate(34.908 7.988)">
        <rect id="Rectangle_1262" data-name="Rectangle 1262" width="0.821" height="7.988" fill="#fff"/>
      </g>
      <g id="Group_293" data-name="Group 293" transform="translate(40.658 7.988)">
        <rect id="Rectangle_1263" data-name="Rectangle 1263" width="0.821" height="7.988" fill="#fff"/>
      </g>
      <g id="Group_294" data-name="Group 294" transform="translate(46.408 7.988)">
        <rect id="Rectangle_1264" data-name="Rectangle 1264" width="0.821" height="7.988" fill="#fff"/>
      </g>
      <g id="Group_295" data-name="Group 295" transform="translate(52.158 7.988)">
        <rect id="Rectangle_1265" data-name="Rectangle 1265" width="0.821" height="7.988" fill="#fff"/>
      </g>
      <g id="Group_296" data-name="Group 296" transform="translate(57.497)">
        <rect id="Rectangle_1266" data-name="Rectangle 1266" width="1.642" height="15.977" fill="#fff"/>
      </g>
      <g id="Group_297" data-name="Group 297" transform="translate(57.497)">
        <rect id="Rectangle_1267" data-name="Rectangle 1267" width="1.642" height="15.977" fill="#fff"/>
      </g>
      <g id="Group_298" data-name="Group 298" transform="translate(63.657 7.988)">
        <rect id="Rectangle_1268" data-name="Rectangle 1268" width="0.821" height="7.988" fill="#fff"/>
      </g>
      <g id="Group_299" data-name="Group 299" transform="translate(69.408 7.988)">
        <rect id="Rectangle_1269" data-name="Rectangle 1269" width="0.821" height="7.988" fill="#fff"/>
      </g>
      <g id="Group_300" data-name="Group 300" transform="translate(75.157 7.988)">
        <rect id="Rectangle_1270" data-name="Rectangle 1270" width="0.821" height="7.988" fill="#fff"/>
      </g>
      <g id="Group_301" data-name="Group 301" transform="translate(80.905 7.988)">
        <rect id="Rectangle_1271" data-name="Rectangle 1271" width="0.821" height="7.988" fill="#fff"/>
      </g>
      <g id="Group_302" data-name="Group 302" transform="translate(86.244)">
        <rect id="Rectangle_1272" data-name="Rectangle 1272" width="1.642" height="15.977" fill="#fff"/>
      </g>
      <g id="Group_303" data-name="Group 303" transform="translate(92.405 7.988)">
        <rect id="Rectangle_1273" data-name="Rectangle 1273" width="0.821" height="7.988" fill="#fff"/>
      </g>
      <g id="Group_304" data-name="Group 304" transform="translate(98.155 7.988)">
        <rect id="Rectangle_1274" data-name="Rectangle 1274" width="0.821" height="7.988" fill="#fff"/>
      </g>
      <g id="Group_305" data-name="Group 305" transform="translate(103.905 7.988)">
        <rect id="Rectangle_1275" data-name="Rectangle 1275" width="0.821" height="7.988" fill="#fff"/>
      </g>
      <g id="Group_306" data-name="Group 306" transform="translate(109.655 7.988)">
        <rect id="Rectangle_1276" data-name="Rectangle 1276" width="0.821" height="7.988" fill="#fff"/>
      </g>
      <g id="Group_307" data-name="Group 307" transform="translate(114.994)">
        <rect id="Rectangle_1277" data-name="Rectangle 1277" width="1.642" height="15.977" fill="#fff"/>
      </g>
      <g id="Group_308" data-name="Group 308" transform="translate(114.994)">
        <rect id="Rectangle_1278" data-name="Rectangle 1278" width="1.642" height="15.977" fill="#fff"/>
      </g>
      <g id="Group_309" data-name="Group 309" transform="translate(121.155 7.988)">
        <rect id="Rectangle_1279" data-name="Rectangle 1279" width="0.821" height="7.988" fill="#fff"/>
      </g>
      <g id="Group_310" data-name="Group 310" transform="translate(126.905 7.988)">
        <rect id="Rectangle_1280" data-name="Rectangle 1280" width="0.821" height="7.988" fill="#fff"/>
      </g>
      <g id="Group_311" data-name="Group 311" transform="translate(132.652 7.988)">
        <rect id="Rectangle_1281" data-name="Rectangle 1281" width="0.821" height="7.988" fill="#fff"/>
      </g>
      <g id="Group_312" data-name="Group 312" transform="translate(138.402 7.988)">
        <rect id="Rectangle_1282" data-name="Rectangle 1282" width="0.821" height="7.988" fill="#fff"/>
      </g>
      <g id="Group_313" data-name="Group 313" transform="translate(143.741)">
        <rect id="Rectangle_1283" data-name="Rectangle 1283" width="1.642" height="15.977" fill="#fff"/>
      </g>
      <g id="Group_314" data-name="Group 314" transform="translate(149.902 7.988)">
        <rect id="Rectangle_1284" data-name="Rectangle 1284" width="0.821" height="7.988" fill="#fff"/>
      </g>
      <g id="Group_315" data-name="Group 315" transform="translate(155.652 7.988)">
        <rect id="Rectangle_1285" data-name="Rectangle 1285" width="0.821" height="7.988" fill="#fff"/>
      </g>
      <g id="Group_316" data-name="Group 316" transform="translate(161.402 7.988)">
        <rect id="Rectangle_1286" data-name="Rectangle 1286" width="0.821" height="7.988" fill="#fff"/>
      </g>
      <g id="Group_317" data-name="Group 317" transform="translate(167.152 7.988)">
        <rect id="Rectangle_1287" data-name="Rectangle 1287" width="0.821" height="7.988" fill="#fff"/>
      </g>
      <g id="Group_318" data-name="Group 318" transform="translate(172.491)">
        <rect id="Rectangle_1288" data-name="Rectangle 1288" width="1.642" height="15.977" fill="#fff"/>
      </g>
      <g id="Group_319" data-name="Group 319" transform="translate(172.491)">
        <rect id="Rectangle_1289" data-name="Rectangle 1289" width="1.642" height="15.977" fill="#fff"/>
      </g>
      <g id="Group_320" data-name="Group 320" transform="translate(178.649 7.988)">
        <rect id="Rectangle_1290" data-name="Rectangle 1290" width="0.821" height="7.988" fill="#fff"/>
      </g>
      <g id="Group_321" data-name="Group 321" transform="translate(184.399 7.988)">
        <rect id="Rectangle_1291" data-name="Rectangle 1291" width="0.821" height="7.988" fill="#fff"/>
      </g>
      <g id="Group_322" data-name="Group 322" transform="translate(190.149 7.988)">
        <rect id="Rectangle_1292" data-name="Rectangle 1292" width="0.821" height="7.988" fill="#fff"/>
      </g>
      <g id="Group_323" data-name="Group 323" transform="translate(195.899 7.988)">
        <rect id="Rectangle_1293" data-name="Rectangle 1293" width="0.821" height="7.988" fill="#fff"/>
      </g>
      <g id="Group_324" data-name="Group 324" transform="translate(201.239)">
        <rect id="Rectangle_1294" data-name="Rectangle 1294" width="1.642" height="15.977" fill="#fff"/>
      </g>
      <g id="Group_325" data-name="Group 325" transform="translate(207.399 7.988)">
        <rect id="Rectangle_1295" data-name="Rectangle 1295" width="0.821" height="7.988" fill="#fff"/>
      </g>
      <g id="Group_326" data-name="Group 326" transform="translate(213.149 7.988)">
        <rect id="Rectangle_1296" data-name="Rectangle 1296" width="0.821" height="7.988" fill="#fff"/>
      </g>
      <g id="Group_327" data-name="Group 327" transform="translate(218.899 7.988)">
        <rect id="Rectangle_1297" data-name="Rectangle 1297" width="0.821" height="7.988" fill="#fff"/>
      </g>
      <g id="Group_328" data-name="Group 328" transform="translate(224.649 7.988)">
        <rect id="Rectangle_1298" data-name="Rectangle 1298" width="0.821" height="7.988" fill="#fff"/>
      </g>
      <g id="Group_329" data-name="Group 329" transform="translate(229.986)">
        <rect id="Rectangle_1299" data-name="Rectangle 1299" width="1.642" height="15.977" fill="#fff"/>
      </g>
    </g>
    <g id="Group_337" data-name="Group 337" transform="translate(26.202 11.043)">
      <g id="Group_332" data-name="Group 332">
        <g id="Group_331" data-name="Group 331">
          <path id="Path_1364" data-name="Path 1364" d="M314.391,96.627H284.323A2.927,2.927,0,0,1,281.4,93.7V70.05a2.927,2.927,0,0,1,2.925-2.925h30.068a2.929,2.929,0,0,1,2.928,2.925V93.7A2.929,2.929,0,0,1,314.391,96.627ZM284.323,68.942a1.109,1.109,0,0,0-1.109,1.109V93.7a1.111,1.111,0,0,0,1.109,1.109h30.068A1.111,1.111,0,0,0,315.5,93.7V70.05a1.11,1.11,0,0,0-1.111-1.109Z" transform="translate(-281.398 -67.125)" fill="#fff"/>
        </g>
      </g>
      <g id="Group_333" data-name="Group 333" transform="translate(11.436 0.908)">
        <rect id="Rectangle_1300" data-name="Rectangle 1300" width="1.334" height="27.687" fill="#fff"/>
      </g>
      <g id="Group_334" data-name="Group 334" transform="translate(23.276 0.908)">
        <rect id="Rectangle_1301" data-name="Rectangle 1301" width="1.334" height="27.687" fill="#fff"/>
      </g>
      <g id="Group_335" data-name="Group 335" transform="translate(0.909 9.061)">
        <rect id="Rectangle_1302" data-name="Rectangle 1302" width="34.104" height="1.334" fill="#fff"/>
      </g>
      <g id="Group_336" data-name="Group 336" transform="translate(0.909 19.108)">
        <rect id="Rectangle_1303" data-name="Rectangle 1303" width="34.104" height="1.334" fill="#fff"/>
      </g>
    </g>
    <g id="Group_353" data-name="Group 353" transform="translate(399.494 155.971)">
      <g id="Group_340" data-name="Group 340" transform="translate(15.088 61.015)">
        <g id="Group_339" data-name="Group 339">
          <path id="Path_1367" data-name="Path 1367" d="M438.558,341.082a1.953,1.953,0,0,1-1.952-1.954v-.413a1.952,1.952,0,1,1,3.9,0v.413A1.953,1.953,0,0,1,438.558,341.082Zm0-8.658a1.953,1.953,0,0,1-1.952-1.954v-.413a1.952,1.952,0,0,1,3.9,0v.413A1.953,1.953,0,0,1,438.558,332.424Zm0-8.661a1.953,1.953,0,0,1-1.952-1.954v-.41a1.952,1.952,0,1,1,3.9,0v.41A1.953,1.953,0,0,1,438.558,323.764Zm0-8.658a1.953,1.953,0,0,1-1.952-1.954v-.413a1.952,1.952,0,1,1,3.9,0v.413A1.953,1.953,0,0,1,438.558,315.106Zm0-8.658a1.953,1.953,0,0,1-1.952-1.954v-.413a1.952,1.952,0,1,1,3.9,0v.413A1.953,1.953,0,0,1,438.558,306.448Zm0-8.661a1.953,1.953,0,0,1-1.952-1.952v-.413a1.952,1.952,0,0,1,3.9,0v.413A1.953,1.953,0,0,1,438.558,297.787Zm0-8.658a1.953,1.953,0,0,1-1.952-1.954v-.41a1.952,1.952,0,1,1,3.9,0v.41A1.953,1.953,0,0,1,438.558,289.129Zm0-8.661a1.951,1.951,0,0,1-1.952-1.952V278.1a1.952,1.952,0,1,1,3.9,0v.413A1.951,1.951,0,0,1,438.558,280.469Zm0-8.658a1.953,1.953,0,0,1-1.952-1.952v-.413a1.952,1.952,0,0,1,3.9,0v.413A1.953,1.953,0,0,1,438.558,271.811Zm0-8.658a1.953,1.953,0,0,1-1.952-1.954v-.41a1.952,1.952,0,1,1,3.9,0v.41A1.953,1.953,0,0,1,438.558,263.153Zm0-8.658a1.953,1.953,0,0,1-1.952-1.954v-.413a1.952,1.952,0,1,1,3.9,0v.413A1.953,1.953,0,0,1,438.558,254.495Zm0-8.661a1.953,1.953,0,0,1-1.952-1.952v-.413a1.952,1.952,0,1,1,3.9,0v.413A1.953,1.953,0,0,1,438.558,245.834Zm0-8.658a1.953,1.953,0,0,1-1.952-1.954v-.41a1.952,1.952,0,1,1,3.9,0v.41A1.953,1.953,0,0,1,438.558,237.176Zm0-8.661a1.953,1.953,0,0,1-1.952-1.952v-.413a1.952,1.952,0,0,1,3.9,0v.413A1.953,1.953,0,0,1,438.558,228.516Zm0-8.658a1.951,1.951,0,0,1-1.952-1.952v-.413a1.952,1.952,0,0,1,3.9,0v.413A1.951,1.951,0,0,1,438.558,219.858Zm0-8.658a1.953,1.953,0,0,1-1.952-1.954v-.413a1.952,1.952,0,1,1,3.9,0v.413A1.953,1.953,0,0,1,438.558,211.2Zm0-8.661a1.951,1.951,0,0,1-1.952-1.952v-.413a1.952,1.952,0,1,1,3.9,0v.413A1.951,1.951,0,0,1,438.558,202.539Zm0-8.658a1.953,1.953,0,0,1-1.952-1.952v-.413a1.952,1.952,0,0,1,3.9,0v.413A1.953,1.953,0,0,1,438.558,193.881Zm0-8.658a1.953,1.953,0,0,1-1.952-1.952v-.413a1.952,1.952,0,1,1,3.9,0v.413A1.953,1.953,0,0,1,438.558,185.223Zm0-8.661a1.951,1.951,0,0,1-1.952-1.952V174.2a1.952,1.952,0,0,1,3.9,0v.413A1.951,1.951,0,0,1,438.558,176.562Zm0-8.658a1.953,1.953,0,0,1-1.952-1.952v-.413a1.952,1.952,0,1,1,3.9,0v.413A1.953,1.953,0,0,1,438.558,167.9Z" transform="translate(-436.606 -163.588)" fill="#fff"/>
        </g>
      </g>
      <g id="Group_352" data-name="Group 352">
        <g id="Group_341" data-name="Group 341" transform="translate(9.528 9.034)">
          <path id="Path_1368" data-name="Path 1368" d="M441.9,157.839a7.512,7.512,0,1,1,7.512-7.512A7.521,7.521,0,0,1,441.9,157.839Zm0-12.937a5.425,5.425,0,1,0,5.425,5.425A5.433,5.433,0,0,0,441.9,144.9Z" transform="translate(-434.384 -142.815)" fill="#fff"/>
        </g>
        <g id="Group_351" data-name="Group 351">
          <g id="Group_342" data-name="Group 342" transform="translate(15.996)">
            <rect id="Rectangle_1304" data-name="Rectangle 1304" width="2.087" height="7.082" fill="#fff"/>
          </g>
          <g id="Group_343" data-name="Group 343" transform="translate(23.345 4.253)">
            <rect id="Rectangle_1305" data-name="Rectangle 1305" width="7.081" height="2.087" transform="translate(0 5.008) rotate(-45.005)" fill="#fff"/>
          </g>
          <g id="Group_344" data-name="Group 344" transform="translate(27 15.998)">
            <rect id="Rectangle_1306" data-name="Rectangle 1306" width="7.079" height="2.087" fill="#fff"/>
          </g>
          <g id="Group_345" data-name="Group 345" transform="translate(23.345 23.344)">
            <rect id="Rectangle_1307" data-name="Rectangle 1307" width="2.087" height="7.081" transform="translate(0 1.476) rotate(-45)" fill="#fff"/>
          </g>
          <g id="Group_346" data-name="Group 346" transform="translate(15.996 26.999)">
            <rect id="Rectangle_1308" data-name="Rectangle 1308" width="2.087" height="7.082" fill="#fff"/>
          </g>
          <g id="Group_347" data-name="Group 347" transform="translate(4.255 23.344)">
            <rect id="Rectangle_1309" data-name="Rectangle 1309" width="7.081" height="2.087" transform="translate(0 5.008) rotate(-45.005)" fill="#fff"/>
          </g>
          <g id="Group_348" data-name="Group 348" transform="translate(0 15.998)">
            <rect id="Rectangle_1310" data-name="Rectangle 1310" width="7.082" height="2.087" fill="#fff"/>
          </g>
          <g id="Group_349" data-name="Group 349" transform="translate(4.255 4.253)">
            <rect id="Rectangle_1311" data-name="Rectangle 1311" width="2.087" height="7.081" transform="translate(0 1.476) rotate(-45)" fill="#fff"/>
          </g>
          <g id="Group_350" data-name="Group 350" transform="translate(15.996)">
            <rect id="Rectangle_1312" data-name="Rectangle 1312" width="2.087" height="7.082" fill="#fff"/>
          </g>
        </g>
      </g>
    </g>
    <g id="Group_360" data-name="Group 360" transform="translate(15.957 0)">
      <g id="Group_356" data-name="Group 356">
        <g id="Group_354" data-name="Group 354">
          <path id="Path_1369" data-name="Path 1369" d="M280.935,89.389H277.3V76.467a13.771,13.771,0,0,1,13.755-13.755h12.922v3.631H291.059a10.137,10.137,0,0,0-10.124,10.124Z" transform="translate(-277.304 -62.712)" fill="#fff"/>
        </g>
        <g id="Group_355" data-name="Group 355" transform="translate(397.323)">
          <path id="Path_1370" data-name="Path 1370" d="M462.766,89.389h-3.633V76.467a10.136,10.136,0,0,0-10.124-10.124H436.086V62.712h12.922a13.772,13.772,0,0,1,13.758,13.755Z" transform="translate(-436.086 -62.712)" fill="#fff"/>
        </g>
      </g>
      <g id="Group_359" data-name="Group 359" transform="translate(0 572.739)">
        <g id="Group_357" data-name="Group 357">
          <path id="Path_1371" data-name="Path 1371" d="M303.979,351.04H291.059A13.769,13.769,0,0,1,277.3,337.284v-12.92h3.631v12.92a10.137,10.137,0,0,0,10.124,10.124h12.919Z" transform="translate(-277.304 -324.365)" fill="#fff"/>
        </g>
        <g id="Group_358" data-name="Group 358" transform="translate(397.323)">
          <path id="Path_1372" data-name="Path 1372" d="M449.005,351.04H436.086v-3.631h12.919a10.136,10.136,0,0,0,10.124-10.124v-12.92h3.633v12.92A13.77,13.77,0,0,1,449.005,351.04Z" transform="translate(-436.086 -324.365)" fill="#fff"/>
        </g>
      </g>
    </g>
    <g id="Group_362" data-name="Group 362" transform="translate(409.683 12.811)">
      <path id="Path_1373" data-name="Path 1373" d="M447.081,70.7l-7.053,13.88-2.223-3.223,6.9.74,2.809.3-1.347,2.077-8.36,12.889L443.242,83l1.462,2.378-6.9.74-3.157.339.934-3.562,3.95-15.06Z" transform="translate(-434.648 -67.832)" fill="#fff"/>
      <g id="Group_361" data-name="Group 361" transform="translate(11.368 19.273)">
        <path id="Path_1374" data-name="Path 1374" d="M439.191,85.8l2.122-10.262h2.99L446.56,85.8h-2.109l-.358-1.829h-2.4L441.37,85.8Zm4.664-3.085-1-5.152c-.033,0-.943,5.152-.943,5.152Z" transform="translate(-439.191 -75.534)" fill="#fff"/>
      </g>
    </g>
    <g id="Group_1816" data-name="Group 1816">
      <path id="Path_1366" data-name="Path 1366" d="M635.627,234.8v-1.237H514.707V70.218h-1.293V233.567H393.141V70.218h-1.3V233.567H270.927V234.8H391.846V397.535H270.927v1.235H391.846V562.118h1.3V398.77H513.414V562.118h1.293V398.77H635.627v-1.235H514.707V234.8ZM513.414,397.535H393.141V234.8H513.414Z" transform="translate(-225.318 -15.737)" fill="#fff"/>
      <g transform="matrix(1, 0, 0, 1, 15.96, 0)" filter="url(#Ellipse_59)">
        <circle id="Ellipse_59-2" data-name="Ellipse 59" cx="5" cy="5" r="5" transform="translate(146.04 214)" fill="#fff"/>
      </g>
      <g transform="matrix(1, 0, 0, 1, 15.96, 0)" filter="url(#Ellipse_60)">
        <circle id="Ellipse_60-2" data-name="Ellipse 60" cx="5" cy="5" r="5" transform="translate(268.04 214)" fill="#fff"/>
      </g>
      <g transform="matrix(1, 0, 0, 1, 15.96, 0)" filter="url(#Ellipse_61)">
        <circle id="Ellipse_61-2" data-name="Ellipse 61" cx="5" cy="5" r="5" transform="translate(146.04 377)" fill="#fff"/>
      </g>
      <g transform="matrix(1, 0, 0, 1, 15.96, 0)" filter="url(#Ellipse_62)">
        <circle id="Ellipse_62-2" data-name="Ellipse 62" cx="5" cy="5" r="5" transform="translate(268.04 377)" fill="#fff"/>
      </g>
    </g>
  </g>
</svg>
