<svg xmlns="http://www.w3.org/2000/svg" width="30" height="30" viewBox="0 0 30 30">
  <path id="Path_1326" data-name="Path 1326" d="M15,0A15,15,0,1,0,30,15,15,15,0,0,0,15,0Zm7.013,21.339a4.146,4.146,0,0,1-4.6,1.509,14.62,14.62,0,0,1-6.339-4.482,14.627,14.627,0,0,1-3.343-7.007A4.147,4.147,0,0,1,10,7.083a1.465,1.465,0,0,1,1.758.308,14.832,14.832,0,0,1,1.382,3.347c.075.515-.464,1.084-1.084,1.2s-.589.439-.589.439a11.627,11.627,0,0,0,2.372,3.658A11.637,11.637,0,0,0,17.043,19s.31.085.532-.506a1.258,1.258,0,0,1,1.368-.864,14.853,14.853,0,0,1,3.065,1.929A1.465,1.465,0,0,1,22.013,21.339Z" fill="#97c9d5"/>
</svg>
