<svg id="電話発信中のフリーアイコン" xmlns="http://www.w3.org/2000/svg" width="16.47" height="16.469" viewBox="0 0 16.47 16.469">
  <path id="Path_1355" data-name="Path 1355" d="M10.171,138.333a.533.533,0,0,0-.711-.038l-1,.808a.532.532,0,0,1-.678-.008,13.977,13.977,0,0,1-3.311-3.311.532.532,0,0,1-.007-.677l.807-1a.532.532,0,0,0-.038-.711l-1.918-1.918a.534.534,0,0,0-.72-.031l-2.406,2.02a.532.532,0,0,0-.127.659s.323.66.624,1.166a23.858,23.858,0,0,0,7.588,7.588c.505.3,1.165.624,1.165.624a.533.533,0,0,0,.659-.127l2.021-2.406a.533.533,0,0,0-.031-.719Z" transform="translate(0.001 -127.097)" fill="#fff"/>
  <path id="Path_1356" data-name="Path 1356" d="M245.476,159.9l.8-.127a4.235,4.235,0,0,0-3.511-3.511l-.127.8a3.428,3.428,0,0,1,2.839,2.839Z" transform="translate(-234.832 -151.241)" fill="#fff"/>
  <path id="Path_1357" data-name="Path 1357" d="M272.614,2.626a9.281,9.281,0,0,0-5.13-2.614l-.125.8a8.51,8.51,0,0,1,7.071,7.071l.8-.126A9.284,9.284,0,0,0,272.614,2.626Z" transform="translate(-258.759 -0.012)" fill="#fff"/>
  <path id="Path_1358" data-name="Path 1358" d="M255.136,78.054l-.125.8a5.956,5.956,0,0,1,4.956,4.956l.8-.126a6.765,6.765,0,0,0-5.63-5.63Z" transform="translate(-246.808 -75.544)" fill="#fff"/>
</svg>
