<svg xmlns="http://www.w3.org/2000/svg" xmlns:xlink="http://www.w3.org/1999/xlink" width="17.36" height="13.769" viewBox="0 0 17.36 13.769">
  <defs>
    <linearGradient id="linear-gradient" x2="1" y2="1" gradientUnits="objectBoundingBox">
      <stop offset="0" stop-color="#fff"/>
      <stop offset="1" stop-color="#fff"/>
    </linearGradient>
  </defs>
  <g id="メールのアイコンその9" transform="translate(0.5 0.5)">
    <path id="Path_1354" data-name="Path 1354" d="M16.32,57.919a2.147,2.147,0,0,0-.445-.941,1.811,1.811,0,0,0-.145-.16,2.156,2.156,0,0,0-1.519-.63H2.149a2.134,2.134,0,0,0-1.519.63,1.886,1.886,0,0,0-.146.162,2.121,2.121,0,0,0-.442.94A2.076,2.076,0,0,0,0,58.337v8.472a2.16,2.16,0,0,0,.63,1.519c.048.048.1.093.148.136a2.154,2.154,0,0,0,1.371.494H14.211a2.138,2.138,0,0,0,1.373-.5,1.86,1.86,0,0,0,.146-.133,2.136,2.136,0,0,0,.44-.634l.014-.034a2.118,2.118,0,0,0,.176-.851V58.337A2.2,2.2,0,0,0,16.32,57.919Zm-15.207-.36a1.011,1.011,0,0,1,.119-.14,1.29,1.29,0,0,1,.917-.381H14.211a1.28,1.28,0,0,1,.918.381,1.3,1.3,0,0,1,.117.136l.092.124L8.9,63.292a1.095,1.095,0,0,1-1.439,0l-6.432-5.61ZM.855,66.884a.513.513,0,0,1,0-.075v-8.3l5,4.359L.9,67.184Zm14,1.052a1.289,1.289,0,0,1-.644.171H2.149a1.288,1.288,0,0,1-.644-.171l-.2-.117,5.111-4.454.56.487a1.838,1.838,0,0,0,2.415,0l.56-.487,5.109,4.454Zm.654-1.127a.537.537,0,0,1,0,.074l-.044.3-4.948-4.312,5-4.359Z" transform="translate(0 -56.188)" stroke="#fff" stroke-width="1" fill="url(#linear-gradient)"/>
  </g>
</svg>
