<svg xmlns="http://www.w3.org/2000/svg" width="30.608" height="20" viewBox="0 0 30.608 20">
  <g id="フォルダアイコン11" transform="translate(0 -88.726)">
    <path id="Path_4509" data-name="Path 4509" d="M30.31,96.228a1.65,1.65,0,0,0-1.362-.731h-16.7a2.217,2.217,0,0,0-2.08,1.5l-2.335,6.746a.7.7,0,0,1-1.066.338l-.346-.249a.835.835,0,0,1-.3-.949l2.357-6.892a3.4,3.4,0,0,1,3.18-2.288H22.053L21.7,92.6A2.222,2.222,0,0,0,19.6,91.02H8.13a1.768,1.768,0,0,1-1.6-1.049,2.1,2.1,0,0,0-1.9-1.245H1.662a1.648,1.648,0,0,0-1.345.706,1.755,1.755,0,0,0-.234,1.536L5.1,107.292a2.053,2.053,0,0,0,1.958,1.434h17.9a2.054,2.054,0,0,0,1.935-1.365L30.508,97.8A1.757,1.757,0,0,0,30.31,96.228Z" transform="translate(0 0)" fill="#fff"/>
  </g>
</svg>
