<svg xmlns="http://www.w3.org/2000/svg" xmlns:xlink="http://www.w3.org/1999/xlink" width="306.12" height="71.76" viewBox="0 0 306.12 71.76">
  <defs>
    <linearGradient id="linear-gradient" y1="0.5" x2="1" y2="0.5" gradientUnits="objectBoundingBox">
      <stop offset="0" stop-color="#97c9d5"/>
      <stop offset="1" stop-color="#d089a6"/>
    </linearGradient>
    <filter id="Path_4137" x="0" y="0" width="306.12" height="71.76" filterUnits="userSpaceOnUse">
      <feOffset dx="2" dy="2" input="SourceAlpha"/>
      <feGaussianBlur stdDeviation="3" result="blur"/>
      <feFlood flood-color="#585858" flood-opacity="0.161"/>
      <feComposite operator="in" in2="blur"/>
      <feComposite in="SourceGraphic"/>
    </filter>
  </defs>
  <g transform="matrix(1, 0, 0, 1, 0, 0)" filter="url(#Path_4137)">
    <path id="Path_4137-2" data-name="Path 4137" d="M-141.89,0h10.36V-19.6h7.21L-113.68,0h11.55l-12.11-21.21c5.95-2.31,9.87-7.14,9.87-14.91,0-11.9-8.61-15.75-19.46-15.75h-18.06Zm10.36-27.79V-43.61h6.72c6.65,0,10.36,1.89,10.36,7.49,0,5.53-3.71,8.33-10.36,8.33ZM-87.15,0H-54.6V-8.68H-76.79V-22.54h18.2v-8.68h-18.2V-43.19h21.42v-8.68H-87.15Zm65.52.98C-9.66.98-2.59-6.23-2.59-14.7c0-7.49-4.13-11.48-10.43-14.07l-6.79-2.87c-4.41-1.75-8.05-3.08-8.05-6.79,0-3.43,2.87-5.46,7.42-5.46A16.524,16.524,0,0,1-9.45-39.62l5.25-6.51a22.988,22.988,0,0,0-16.24-6.65c-10.5,0-17.92,6.51-17.92,14.98,0,7.56,5.25,11.76,10.5,13.93l6.93,2.94c4.62,1.96,7.77,3.15,7.77,7,0,3.64-2.87,5.95-8.26,5.95-4.55,0-9.45-2.31-13.16-5.74l-5.95,7.14A27.6,27.6,0,0,0-21.63.98Zm55.09,0c12.67,0,20.02-7.07,20.02-24.29V-51.87H43.54V-22.4c0,10.78-3.92,14.42-10.08,14.42-6.02,0-9.8-3.64-9.8-14.42V-51.87H13.3v28.56C13.3-6.09,20.86.98,33.46.98ZM72.94,0h31.43V-8.68H83.3V-51.87H72.94Zm48.23,0h10.36V-43.19h14.7v-8.68H106.61v8.68h14.56Z" transform="translate(148.89 59.78)" fill="url(#linear-gradient)"/>
  </g>
</svg>
