<svg xmlns="http://www.w3.org/2000/svg" width="22.346" height="22.36" viewBox="0 0 22.346 22.36">
  <g id="虫眼鏡の無料アイコン8" transform="translate(-0.159 0.001)">
    <path id="Path_4487" data-name="Path 4487" d="M14.7,12.748a8.035,8.035,0,1,0-1.787,1.787l.621.62,1.787-1.787Zm-2.381-.593a5.832,5.832,0,1,1,0-8.248A5.833,5.833,0,0,1,12.315,12.154Z" fill="#fff"/>
    <path id="Path_4488" data-name="Path 4488" d="M88.122,116.478a4.612,4.612,0,0,0-.3,5.224.324.324,0,0,0,.553-.338h0a3.965,3.965,0,0,1,.253-4.488.324.324,0,1,0-.511-.4Z" transform="translate(-83.196 -111.272)" fill="#fff"/>
    <path id="Path_4489" data-name="Path 4489" d="M323.49,320.568l-6.034-5.39-2.1,2.1,5.389,6.034c.548.709,1.535.6,2.421-.282S324.2,321.116,323.49,320.568Z" transform="translate(-301.436 -301.414)" fill="#fff"/>
  </g>
</svg>
