<svg xmlns="http://www.w3.org/2000/svg" width="111.895" height="91.926" viewBox="0 0 111.895 91.926">
  <g id="XMLID_1550_" transform="translate(-2.5 -6.783)">
    <g id="XMLID_1582_" transform="translate(2.5 6.783)">
      <path id="Path_4481" data-name="Path 4481" d="M114.068,45.726a24.718,24.718,0,0,0-24.336-20.5h-.118a24.586,24.586,0,0,0-6.644.942,27.653,27.653,0,0,0-53.9,5.489,22.164,22.164,0,0,0-3.7-.519A21.67,21.67,0,0,0,14.65,72.253a13.454,13.454,0,0,0,5.7,1.225h.188l5.3-.047c-.094-.565-.141-1.131-.188-1.7-.071-.73-.094-1.579-.094-2.4a32.888,32.888,0,0,1,65.776,0c0,.542-.024,1.036-.047,1.6q-.035.883-.141,1.767c1.626-.024,3.228-.024,4.782-.024a12.916,12.916,0,0,0,6.6-1.79A24.634,24.634,0,0,0,114.068,45.726Z" transform="translate(-2.5 -6.783)" fill="#97c9d5"/>
    </g>
    <g id="XMLID_1671_" transform="translate(29.088 40.024)">
      <path id="Path_4482" data-name="Path 4482" d="M43.236,21.042a29.353,29.353,0,0,0-29.33,29.308c0,.722.021,1.443.086,2.142a29.346,29.346,0,0,0,58.577-.584c.023-.552.045-1.044.045-1.558A29.377,29.377,0,0,0,43.236,21.042Zm12,31.912L44.73,68.717a1.767,1.767,0,0,1-2.94,0L31.282,52.955a1.767,1.767,0,0,1,1.47-2.747h3.581V33.036A1.767,1.767,0,0,1,38.1,31.269H48.419a1.767,1.767,0,0,1,1.767,1.767V50.208h3.581a1.767,1.767,0,0,1,1.47,2.747Z" transform="translate(-13.906 -21.042)" fill="#97c9d5"/>
    </g>
  </g>
</svg>
